P3
64 64
255
0 81 0 0 81 0 0 81 0 0 81 0 0 81 0 0 81 0 0 81 0 0 81 0 0 81 0 0 81 0 0 81 0 0 81 0 0 81 0 0 81 0 0 81 0 0 81 0 0 81 0 0 81 0 0 81 0 0 81 0 0 81 0 0 81 0 0 81 0 0 81 0 0 81 0 0 81 0 0 81 0 0 81 0 0 81 0 0 81 0 0 81 0 0 81 0 0 81 0 0 81 0 0 81 0 0 81 0 0 81 0 0 81 0 0 81 0 0 81 0 0 81 0 0 81 0 0 81 0 0 81 0 0 81 0 0 81 0 0 81 0 0 81 0 0 81 0 0 81 0 0 81 0 0 81 0 0 81 0 0 81 0 0 81 0 0 81 0 0 81 0 0 81 0 0 81 0 0 81 0 0 81 0 0 81 0 0 81 0 0 81 0 
0 81 0 0 93 0 0 69 0 0 58 0 0 93 0 0 58 0 0 69 0 0 58 0 0 93 0 0 81 0 0 93 0 0 174 0 0 81 0 0 81 0 0 151 0 0 128 0 0 58 0 0 128 0 0 93 0 0 46 0 0 69 0 0 104 0 0 81 0 0 46 0 0 69 0 0 11 0 0 104 0 0 93 0 0 81 0 0 128 0 0 93 0 0 104 0 0 81 0 0 69 0 0 93 0 0 58 0 0 93 0 0 34 0 0 139 0 0 69 0 0 58 0 0 93 0 0 151 0 0 58 0 0 93 0 0 116 0 0 104 0 0 116 0 0 104 0 0 46 0 0 69 0 0 69 0 0 34 0 0 93 0 0 81 0 0 81 0 0 93 0 0 46 0 0 93 0 0 81 0 0 104 0 0 116 0 0 93 0 0 34 0 
0 81 0 0 69 0 0 93 0 0 69 0 0 93 0 0 93 0 0 81 0 0 151 0 0 58 0 0 93 0 0 69 0 0 81 0 0 69 0 0 104 0 0 81 0 0 93 0 0 81 0 0 93 0 0 93 0 0 139 0 0 58 0 0 151 0 0 93 0 0 104 0 0 104 0 0 69 0 0 34 0 0 81 0 0 93 0 0 93 0 0 104 0 0 93 0 0 58 0 0 81 0 0 116 0 0 104 0 0 23 0 0 69 0 0 116 0 0 81 0 0 46 0 0 104 0 0 58 0 0 128 0 0 58 0 0 116 0 0 81 0 0 93 0 0 81 0 0 93 0 0 81 0 0 81 0 0 58 0 0 104 0 0 58 0 0 81 0 0 81 0 0 104 0 0 104 0 0 116 0 0 34 0 0 128 0 0 69 0 0 93 0 
0 81 0 0 58 0 0 69 0 0 81 0 0 81 0 0 128 0 0 93 0 0 104 0 0 69 0 0 93 0 0 93 0 0 69 0 0 93 0 0 69 0 0 151 0 0 116 0 0 104 0 0 69 0 0 81 0 0 46 0 0 104 0 0 34 0 0 81 0 0 104 0 0 23 0 0 34 0 0 81 0 0 116 0 0 58 0 0 69 0 0 116 0 0 116 0 0 81 0 0 46 0 0 81 0 0 46 0 0 58 0 0 104 0 0 104 0 0 104 0 0 34 0 0 104 0 0 93 0 0 151 0 0 69 0 0 69 0 0 69 0 0 104 0 0 128 0 0 116 0 0 104 0 0 162 0 0 46 0 0 139 0 0 81 0 0 34 0 0 69 0 0 69 0 0 104 0 0 81 0 0 23 0 0 69 0 0 34 0 0 81 0 
0 81 0 0 93 0 0 93 0 0 81 0 0 58 0 0 69 0 0 69 0 0 81 0 0 81 0 0 93 0 0 58 0 0 93 0 0 104 0 0 34 0 0 93 0 0 104 0 0 58 0 0 116 0 0 23 0 0 116 0 0 46 0 0 58 0 0 58 0 0 81 0 0 81 0 0 81 0 0 58 0 0 58 0 0 81 0 0 104 0 0 34 0 0 69 0 0 104 0 0 69 0 0 34 0 0 58 0 0 128 0 0 116 0 0 46 0 0 46 0 0 69 0 0 93 0 0 69 0 0 58 0 0 116 0 0 23 0 0 23 0 0 58 0 0 139 0 0 58 0 0 104 0 0 93 0 0 93 0 0 69 0 0 23 0 0 104 0 0 139 0 0 81 0 0 69 0 0 104 0 0 151 0 0 116 0 0 58 0 0 81 0 
0 81 0 0 58 0 0 93 0 0 128 0 0 69 0 0 11 0 0 93 0 0 58 0 0 58 0 0 116 0 0 69 0 0 81 0 0 104 0 0 116 0 0 104 0 0 34 0 0 46 0 0 93 0 0 116 0 0 46 0 0 81 0 0 46 0 0 81 0 0 34 0 0 34 0 0 93 0 0 69 0 0 69 0 0 58 0 0 81 0 0 104 0 0 116 0 0 69 0 0 34 0 0 46 0 0 58 0 0 23 0 0 58 0 0 151 0 0 116 0 0 104 0 0 81 0 0 34 0 0 81 0 0 104 0 0 58 0 0 151 0 0 104 0 0 151 0 0 128 0 0 151 0 0 81 0 0 46 0 0 69 0 0 104 0 0 139 0 0 81 0 0 104 0 0 93 0 0 69 0 0 81 0 0 69 0 0 93 0 0 58 0 
0 81 0 0 69 0 0 81 0 0 93 0 0 69 0 0 93 0 0 93 0 0 151 0 0 104 0 0 81 0 0 104 0 0 81 0 0 23 0 0 81 0 0 58 0 0 116 0 0 81 0 0 81 0 0 58 0 0 104 0 0 34 0 0 93 0 0 69 0 0 69 0 0 128 0 0 104 0 0 46 0 0 81 0 0 69 0 0 104 0 0 23 0 0 34 0 0 139 0 0 69 0 0 93 0 0 34 0 0 23 0 0 69 0 0 81 0 0 104 0 0 151 0 0 93 0 0 81 0 0 139 0 0 69 0 0 104 0 0 34 0 0 104 0 0 128 0 0 104 0 0 81 0 0 69 0 0 93 0 0 93 0 0 46 0 0 69 0 0 128 0 0 34 0 0 104 0 0 69 0 0 116 0 0 104 0 0 93 0 0 46 0 
0 81 0 0 58 0 0 151 0 0 104 0 0 81 0 0 58 0 0 151 0 0 46 0 0 93 0 0 34 0 0 104 0 0 93 0 0 58 0 0 69 0 0 93 0 0 46 0 0 81 0 0 46 0 0 93 0 0 81 0 0 58 0 0 116 0 0 58 0 0 58 0 0 69 0 0 58 0 0 81 0 0 81 0 0 58 0 0 128 0 0 34 0 0 58 0 0 139 0 0 116 0 0 46 0 0 128 0 0 81 0 0 46 0 0 81 0 0 128 0 0 81 0 0 151 0 0 104 0 0 46 0 0 46 0 0 58 0 0 116 0 0 58 0 0 128 0 0 93 0 0 58 0 0 81 0 0 69 0 0 162 0 0 46 0 0 104 0 0 174 0 0 81 0 0 69 0 0 128 0 0 81 0 0 116 0 0 128 0 0 104 0 
0 81 0 0 93 0 0 58 0 0 69 0 0 81 0 0 58 0 0 104 0 0 93 0 0 58 0 0 23 0 0 46 0 0 58 0 0 81 0 0 58 0 0 81 0 0 34 0 0 104 0 0 34 0 0 128 0 0 46 0 0 69 0 0 69 0 0 116 0 0 23 0 0 139 0 0 104 0 0 93 0 0 23 0 0 139 0 0 69 0 0 151 0 0 58 0 0 174 0 0 69 0 0 58 0 0 81 0 0 128 0 0 116 0 0 104 0 0 93 0 0 128 0 0 93 0 0 128 0 0 81 0 0 104 0 0 116 0 0 128 0 0 69 0 0 58 0 0 174 0 0 104 0 0 93 0 0 58 0 0 69 0 0 128 0 0 69 0 0 81 0 0 69 0 0 58 0 0 11 0 0 58 0 0 58 0 0 81 0 0 81 0 
0 81 0 0 81 0 0 93 0 0 93 0 0 93 0 0 116 0 0 81 0 0 34 0 0 23 0 0 116 0 0 116 0 0 46 0 0 58 0 0 104 0 0 93 0 0 69 0 0 128 0 0 162 0 0 81 0 0 69 0 0 23 0 0 81 0 0 69 0 0 93 0 0 23 0 0 58 0 0 104 0 0 46 0 0 81 0 0 104 0 0 104 0 0 69 0 0 128 0 0 151 0 0 69 0 0 58 0 0 46 0 0 139 0 0 34 0 0 69 0 0 116 0 0 174 0 0 46 0 0 58 0 0 46 0 0 93 0 0 128 0 0 186 0 0 128 0 0 104 0 0 151 0 0 104 0 0 93 0 0 58 0 0 128 0 0 46 0 0 81 0 0 69 0 0 69 0 0 128 0 0 69 0 0 93 0 0 81 0 0 93 0 
0 81 0 0 93 0 0 69 0 0 93 0 0 58 0 0 69 0 0 104 0 0 104 0 0 46 0 0 116 0 0 81 0 0 81 0 0 34 0 0 69 0 0 58 0 0 104 0 0 69 0 0 46 0 0 23 0 0 151 0 0 104 0 0 34 0 0 104 0 0 151 0 0 151 0 0 151 0 0 46 0 0 104 0 0 81 0 0 93 0 0 81 0 0 93 0 0 128 0 0 69 0 0 81 0 0 58 0 0 116 0 0 116 0 0 69 0 0 69 0 0 104 0 0 81 0 0 81 0 0 46 0 0 69 0 0 151 0 0 139 0 0 151 0 0 58 0 0 81 0 0 93 0 0 46 0 0 116 0 0 34 0 0 69 0 0 34 0 0 93 0 0 151 0 0 69 0 0 81 0 0 128 0 0 93 0 0 81 0 0 69 0 
0 81 0 0 174 0 0 81 0 0 69 0 0 93 0 0 81 0 0 81 0 0 93 0 0 58 0 0 46 0 0 81 0 0 93 0 0 69 0 0 58 0 0 58 0 0 34 0 0 116 0 0 46 0 0 69 0 0 93 0 0 104 0 0 116 0 0 81 0 0 46 0 0 69 0 0 139 0 0 104 0 0 151 0 0 46 0 0 104 0 0 69 0 0 46 0 0 104 0 0 104 0 0 69 0 0 104 0 0 46 0 0 69 0 0 69 0 0 93 0 0 69 0 0 46 0 0 116 0 0 58 0 0 104 0 0 46 0 0 69 0 0 93 0 0 81 0 0 34 0 0 34 0 0 116 0 0 46 0 0 34 0 0 104 0 0 69 0 0 93 0 0 46 0 0 93 0 0 69 0 0 151 0 0 116 0 0 116 0 0 69 0 
0 81 0 0 81 0 0 69 0 0 93 0 0 104 0 0 104 0 0 23 0 0 58 0 0 81 0 0 58 0 0 34 0 0 69 0 0 128 0 0 46 0 0 69 0 0 23 0 0 139 0 0 93 0 0 23 0 0 81 0 0 151 0 0 81 0 0 69 0 0 34 0 0 128 0 0 81 0 0 93 0 0 46 0 0 128 0 0 104 0 0 116 0 0 93 0 0 58 0 0 46 0 0 93 0 0 81 0 0 128 0 0 116 0 0 69 0 0 93 0 0 58 0 0 93 0 0 81 0 0 104 0 0 81 0 0 69 0 0 128 0 0 139 0 0 46 0 0 81 0 0 128 0 0 58 0 0 46 0 0 104 0 0 93 0 0 151 0 0 93 0 0 116 0 0 186 0 0 116 0 0 46 0 0 46 0 0 81 0 0 58 0 
0 81 0 0 81 0 0 104 0 0 69 0 0 34 0 0 116 0 0 81 0 0 69 0 0 58 0 0 104 0 0 69 0 0 58 0 0 46 0 0 104 0 0 81 0 0 116 0 0 93 0 0 139 0 0 104 0 0 58 0 0 46 0 0 128 0 0 104 0 0 69 0 0 93 0 0 81 0 0 93 0 0 69 0 0 69 0 0 81 0 0 69 0 0 104 0 0 58 0 0 93 0 0 104 0 0 46 0 0 93 0 0 81 0 0 69 0 0 93 0 0 116 0 0 34 0 0 58 0 0 23 0 0 46 0 0 104 0 0 116 0 0 46 0 0 46 0 0 93 0 0 69 0 0 81 0 0 197 0 0 104 0 0 81 0 0 81 0 0 58 0 0 116 0 0 81 0 0 69 0 0 69 0 0 81 0 0 34 0 0 104 0 
0 81 0 0 151 0 0 81 0 0 151 0 0 93 0 0 104 0 0 58 0 0 93 0 0 81 0 0 93 0 0 58 0 0 58 0 0 69 0 0 81 0 0 58 0 0 34 0 0 139 0 0 46 0 0 81 0 0 81 0 0 81 0 0 104 0 0 46 0 0 116 0 0 128 0 0 58 0 0 69 0 0 46 0 0 174 0 0 69 0 0 81 0 0 128 0 0 81 0 0 116 0 0 116 0 0 81 0 0 81 0 0 81 0 0 104 0 0 58 0 0 93 0 0 58 0 0 81 0 0 93 0 0 93 0 0 69 0 0 46 0 0 104 0 0 93 0 0 104 0 0 34 0 0 58 0 0 58 0 0 58 0 0 58 0 0 104 0 0 104 0 0 93 0 0 69 0 0 58 0 0 23 0 0 34 0 0 139 0 0 58 0 
0 81 0 0 128 0 0 93 0 0 116 0 0 104 0 0 34 0 0 116 0 0 46 0 0 34 0 0 69 0 0 104 0 0 34 0 0 23 0 0 116 0 0 34 0 0 58 0 0 151 0 0 81 0 0 104 0 0 104 0 0 81 0 0 58 0 0 69 0 0 128 0 0 116 0 0 69 0 0 69 0 0 93 0 0 81 0 0 34 0 0 151 0 0 104 0 0 58 0 0 46 0 0 46 0 0 46 0 0 69 0 0 69 0 0 151 0 0 104 0 0 128 0 0 23 0 0 69 0 0 34 0 0 151 0 0 93 0 0 81 0 0 93 0 0 46 0 0 104 0 0 81 0 0 104 0 0 69 0 0 93 0 0 116 0 0 69 0 0 23 0 0 69 0 0 69 0 0 34 0 0 58 0 0 58 0 0 81 0 0 69 0 
0 81 0 0 58 0 0 81 0 0 104 0 0 58 0 0 46 0 0 81 0 0 81 0 0 104 0 0 128 0 0 69 0 0 116 0 0 139 0 0 93 0 0 139 0 0 151 0 0 174 0 0 58 0 0 128 0 0 104 0 0 128 0 0 128 0 0 104 0 0 128 0 0 58 0 0 104 0 0 58 0 0 128 0 0 81 0 0 58 0 0 58 0 0 81 0 0 104 0 0 81 0 0 46 0 0 93 0 0 46 0 0 58 0 0 81 0 0 46 0 0 104 0 0 93 0 0 93 0 0 116 0 0 69 0 0 46 0 0 58 0 0 93 0 0 93 0 0 104 0 0 46 0 0 58 0 0 58 0 0 58 0 0 46 0 0 151 0 0 116 0 0 128 0 0 104 0 0 81 0 0 69 0 0 81 0 0 58 0 0 69 0 
0 81 0 0 128 0 0 93 0 0 69 0 0 116 0 0 93 0 0 81 0 0 46 0 0 34 0 0 162 0 0 46 0 0 46 0 0 93 0 0 139 0 0 46 0 0 81 0 0 58 0 0 81 0 0 69 0 0 46 0 0 81 0 0 81 0 0 69 0 0 34 0 0 93 0 0 81 0 0 104 0 0 104 0 0 116 0 0 93 0 0 46 0 0 104 0 0 46 0 0 116 0 0 23 0 0 69 0 0 58 0 0 46 0 0 151 0 0 81 0 0 69 0 0 81 0 0 58 0 0 104 0 0 128 0 0 104 0 0 58 0 0 69 0 0 58 0 0 23 0 0 151 0 0 104 0 0 93 0 0 93 0 0 58 0 0 58 0 0 58 0 0 34 0 0 116 0 0 69 0 0 58 0 0 104 0 0 46 0 0 69 0 
0 81 0 0 93 0 0 93 0 0 81 0 0 23 0 0 116 0 0 58 0 0 93 0 0 128 0 0 81 0 0 23 0 0 69 0 0 23 0 0 104 0 0 81 0 0 104 0 0 128 0 0 69 0 0 46 0 0 34 0 0 116 0 0 46 0 0 46 0 0 128 0 0 128 0 0 151 0 0 93 0 0 128 0 0 81 0 0 69 0 0 69 0 0 81 0 0 46 0 0 104 0 0 58 0 0 69 0 0 93 0 0 46 0 0 116 0 0 81 0 0 46 0 0 46 0 0 58 0 0 81 0 0 58 0 0 116 0 0 128 0 0 58 0 0 46 0 0 58 0 0 58 0 0 58 0 0 58 0 0 69 0 0 81 0 0 46 0 0 69 0 0 128 0 0 139 0 0 69 0 0 46 0 0 139 0 0 69 0 0 93 0 
0 81 0 0 46 0 0 139 0 0 46 0 0 116 0 0 46 0 0 104 0 0 81 0 0 46 0 0 69 0 0 151 0 0 93 0 0 81 0 0 58 0 0 81 0 0 104 0 0 104 0 0 46 0 0 34 0 0 81 0 0 69 0 0 81 0 0 69 0 0 69 0 0 69 0 0 104 0 0 69 0 0 69 0 0 104 0 0 58 0 0 151 0 0 151 0 0 81 0 0 46 0 0 151 0 0 139 0 0 116 0 0 69 0 0 81 0 0 116 0 0 81 0 0 81 0 0 93 0 0 128 0 0 81 0 0 69 0 0 93 0 0 58 0 0 128 0 0 93 0 0 46 0 0 34 0 0 81 0 0 128 0 0 128 0 0 69 0 0 46 0 0 93 0 0 69 0 0 58 0 0 81 0 0 81 0 0 93 0 0 128 0 
0 81 0 0 69 0 0 58 0 0 104 0 0 46 0 0 81 0 0 34 0 0 58 0 0 69 0 0 23 0 0 104 0 0 104 0 0 151 0 0 46 0 0 81 0 0 81 0 0 128 0 0 81 0 0 116 0 0 69 0 0 104 0 0 81 0 0 69 0 0 139 0 0 58 0 0 93 0 0 116 0 0 69 0 0 93 0 0 69 0 0 128 0 0 81 0 0 104 0 0 151 0 0 69 0 0 34 0 0 46 0 0 139 0 0 81 0 0 69 0 0 46 0 0 116 0 0 23 0 0 58 0 0 151 0 0 58 0 0 58 0 0 11 0 0 69 0 0 81 0 0 34 0 0 58 0 0 81 0 0 128 0 0 46 0 0 11 0 0 81 0 0 81 0 0 69 0 0 116 0 0 69 0 0 81 0 0 116 0 0 139 0 
0 81 0 0 104 0 0 151 0 0 34 0 0 58 0 0 46 0 0 93 0 0 116 0 0 69 0 0 81 0 0 34 0 0 116 0 0 81 0 0 128 0 0 104 0 0 58 0 0 128 0 0 81 0 0 46 0 0 81 0 0 81 0 0 104 0 0 116 0 0 69 0 0 81 0 0 46 0 0 58 0 0 93 0 0 81 0 0 104 0 0 69 0 0 93 0 0 93 0 0 69 0 0 58 0 0 104 0 0 58 0 0 58 0 0 93 0 0 104 0 0 23 0 0 93 0 0 58 0 0 58 0 0 81 0 0 69 0 0 81 0 0 81 0 0 69 0 0 23 0 0 93 0 0 69 0 0 93 0 0 116 0 0 93 0 0 116 0 0 81 0 0 128 0 0 116 0 0 104 0 0 139 0 0 58 0 0 93 0 0 104 0 
0 81 0 0 81 0 0 93 0 0 81 0 0 58 0 0 81 0 0 69 0 0 58 0 0 116 0 0 69 0 0 104 0 0 81 0 0 69 0 0 104 0 0 46 0 0 69 0 0 104 0 0 69 0 0 46 0 0 69 0 0 69 0 0 116 0 0 104 0 0 69 0 0 81 0 0 34 0 0 46 0 0 104 0 0 93 0 0 93 0 0 151 0 0 116 0 0 69 0 0 104 0 0 128 0 0 104 0 0 58 0 0 58 0 0 81 0 0 69 0 0 151 0 0 104 0 0 81 0 0 58 0 0 58 0 0 46 0 0 128 0 0 58 0 0 139 0 0 69 0 0 11 0 0 58 0 0 69 0 0 69 0 0 93 0 0 104 0 0 69 0 0 69 0 0 116 0 0 128 0 0 81 0 0 81 0 0 46 0 0 81 0 
0 81 0 0 46 0 0 104 0 0 104 0 0 81 0 0 34 0 0 69 0 0 58 0 0 23 0 0 93 0 0 151 0 0 46 0 0 34 0 0 69 0 0 116 0 0 128 0 0 128 0 0 34 0 0 128 0 0 69 0 0 139 0 0 69 0 0 69 0 0 69 0 0 128 0 0 34 0 0 116 0 0 58 0 0 46 0 0 69 0 0 81 0 0 34 0 0 58 0 0 81 0 0 58 0 0 93 0 0 128 0 0 104 0 0 93 0 0 116 0 0 58 0 0 69 0 0 81 0 0 69 0 0 128 0 0 46 0 0 93 0 0 116 0 0 81 0 0 116 0 0 174 0 0 81 0 0 93 0 0 139 0 0 69 0 0 81 0 0 46 0 0 104 0 0 116 0 0 128 0 0 69 0 0 128 0 0 58 0 0 46 0 
0 81 0 0 69 0 0 104 0 0 23 0 0 81 0 0 34 0 0 128 0 0 69 0 0 139 0 0 23 0 0 151 0 0 69 0 0 128 0 0 93 0 0 128 0 0 116 0 0 58 0 0 93 0 0 128 0 0 69 0 0 58 0 0 81 0 0 81 0 0 128 0 0 46 0 0 128 0 0 46 0 0 93 0 0 93 0 0 186 0 0 46 0 0 81 0 0 93 0 0 58 0 0 58 0 0 23 0 0 46 0 0 81 0 0 128 0 0 58 0 0 69 0 0 23 0 0 69 0 0 162 0 0 139 0 0 46 0 0 81 0 0 69 0 0 23 0 0 81 0 0 69 0 0 93 0 0 93 0 0 104 0 0 58 0 0 81 0 0 93 0 0 139 0 0 116 0 0 58 0 0 58 0 0 58 0 0 58 0 0 58 0 
0 81 0 0 11 0 0 69 0 0 34 0 0 81 0 0 93 0 0 104 0 0 58 0 0 104 0 0 58 0 0 151 0 0 139 0 0 81 0 0 81 0 0 58 0 0 69 0 0 104 0 0 81 0 0 151 0 0 104 0 0 93 0 0 46 0 0 34 0 0 34 0 0 128 0 0 104 0 0 69 0 0 93 0 0 34 0 0 104 0 0 81 0 0 81 0 0 46 0 0 69 0 0 151 0 0 34 0 0 58 0 0 128 0 0 46 0 0 93 0 0 34 0 0 93 0 0 93 0 0 69 0 0 11 0 0 34 0 0 174 0 0 104 0 0 69 0 0 116 0 0 104 0 0 81 0 0 93 0 0 93 0 0 81 0 0 34 0 0 151 0 0 69 0 0 93 0 0 104 0 0 46 0 0 128 0 0 93 0 0 151 0 
0 81 0 0 104 0 0 34 0 0 81 0 0 58 0 0 69 0 0 46 0 0 81 0 0 93 0 0 104 0 0 46 0 0 104 0 0 93 0 0 93 0 0 69 0 0 69 0 0 58 0 0 104 0 0 93 0 0 69 0 0 116 0 0 58 0 0 46 0 0 116 0 0 46 0 0 69 0 0 197 0 0 81 0 0 58 0 0 81 0 0 69 0 0 34 0 0 58 0 0 69 0 0 93 0 0 151 0 0 58 0 0 69 0 0 81 0 0 128 0 0 81 0 0 34 0 0 93 0 0 104 0 0 69 0 0 23 0 0 93 0 0 162 0 0 93 0 0 69 0 0 93 0 0 81 0 0 93 0 0 93 0 0 93 0 0 46 0 0 116 0 0 58 0 0 46 0 0 69 0 0 23 0 0 104 0 0 104 0 0 46 0 
0 81 0 0 93 0 0 81 0 0 116 0 0 58 0 0 69 0 0 81 0 0 81 0 0 23 0 0 46 0 0 104 0 0 151 0 0 46 0 0 69 0 0 46 0 0 93 0 0 128 0 0 104 0 0 128 0 0 69 0 0 69 0 0 93 0 0 104 0 0 58 0 0 93 0 0 93 0 0 81 0 0 81 0 0 58 0 0 58 0 0 116 0 0 81 0 0 46 0 0 81 0 0 58 0 0 69 0 0 81 0 0 46 0 0 128 0 0 104 0 0 46 0 0 69 0 0 93 0 0 58 0 0 93 0 0 93 0 0 69 0 0 23 0 0 58 0 0 104 0 0 81 0 0 162 0 0 93 0 0 104 0 0 23 0 0 69 0 0 58 0 0 93 0 0 58 0 0 81 0 0 69 0 0 151 0 0 81 0 0 104 0 
0 81 0 0 81 0 0 93 0 0 58 0 0 81 0 0 58 0 0 69 0 0 58 0 0 139 0 0 81 0 0 81 0 0 46 0 0 128 0 0 69 0 0 174 0 0 81 0 0 81 0 0 116 0 0 81 0 0 104 0 0 93 0 0 81 0 0 93 0 0 46 0 0 93 0 0 34 0 0 58 0 0 58 0 0 104 0 0 69 0 0 23 0 0 139 0 0 116 0 0 81 0 0 58 0 0 81 0 0 69 0 0 81 0 0 46 0 0 93 0 0 81 0 0 58 0 0 81 0 0 81 0 0 69 0 0 139 0 0 46 0 0 104 0 0 93 0 0 104 0 0 151 0 0 104 0 0 116 0 0 69 0 0 58 0 0 81 0 0 46 0 0 93 0 0 104 0 0 34 0 0 128 0 0 128 0 0 69 0 0 81 0 
0 81 0 0 128 0 0 93 0 0 69 0 0 104 0 0 81 0 0 104 0 0 128 0 0 69 0 0 104 0 0 93 0 0 104 0 0 104 0 0 81 0 0 69 0 0 34 0 0 58 0 0 93 0 0 69 0 0 58 0 0 69 0 0 104 0 0 93 0 0 69 0 0 186 0 0 104 0 0 81 0 0 58 0 0 69 0 0 104 0 0 69 0 0 81 0 0 104 0 0 58 0 0 116 0 0 81 0 0 139 0 0 128 0 0 69 0 0 58 0 0 69 0 0 139 0 0 116 0 0 81 0 0 116 0 0 151 0 0 116 0 0 34 0 0 116 0 0 81 0 0 93 0 0 58 0 0 46 0 0 11 0 0 58 0 0 93 0 0 104 0 0 69 0 0 46 0 0 104 0 0 69 0 0 81 0 0 128 0 0 104 0 
0 81 0 0 93 0 0 104 0 0 116 0 0 34 0 0 104 0 0 23 0 0 34 0 0 151 0 0 104 0 0 81 0 0 69 0 0 116 0 0 69 0 0 81 0 0 151 0 0 58 0 0 46 0 0 69 0 0 151 0 0 128 0 0 69 0 0 151 0 0 81 0 0 46 0 0 81 0 0 69 0 0 116 0 0 23 0 0 69 0 0 58 0 0 81 0 0 69 0 0 46 0 0 58 0 0 93 0 0 46 0 0 81 0 0 81 0 0 23 0 0 69 0 0 69 0 0 139 0 0 104 0 0 81 0 0 81 0 0 69 0 0 104 0 0 58 0 0 34 0 0 46 0 0 128 0 0 23 0 0 23 0 0 69 0 0 162 0 0 128 0 0 58 0 0 69 0 0 81 0 0 69 0 0 81 0 0 69 0 0 104 0 
0 81 0 0 104 0 0 93 0 0 116 0 0 69 0 0 116 0 0 34 0 0 58 0 0 58 0 0 69 0 0 93 0 0 46 0 0 93 0 0 104 0 0 128 0 0 104 0 0 81 0 0 104 0 0 81 0 0 151 0 0 81 0 0 93 0 0 116 0 0 34 0 0 81 0 0 81 0 0 34 0 0 81 0 0 139 0 0 81 0 0 81 0 0 58 0 0 58 0 0 93 0 0 46 0 0 58 0 0 69 0 0 116 0 0 93 0 0 46 0 0 116 0 0 162 0 0 93 0 0 81 0 0 46 0 0 69 0 0 58 0 0 116 0 0 58 0 0 69 0 0 93 0 0 139 0 0 104 0 0 81 0 0 81 0 0 69 0 0 69 0 0 34 0 0 128 0 0 139 0 0 69 0 0 34 0 0 58 0 0 116 0 
0 81 0 0 81 0 0 58 0 0 81 0 0 104 0 0 69 0 0 139 0 0 139 0 0 174 0 0 128 0 0 128 0 0 104 0 0 58 0 0 58 0 0 81 0 0 58 0 0 104 0 0 46 0 0 46 0 0 81 0 0 104 0 0 93 0 0 69 0 0 58 0 0 93 0 0 46 0 0 58 0 0 46 0 0 116 0 0 104 0 0 69 0 0 58 0 0 116 0 0 139 0 0 116 0 0 81 0 0 23 0 0 81 0 0 93 0 0 93 0 0 81 0 0 93 0 0 93 0 0 34 0 0 116 0 0 58 0 0 69 0 0 46 0 0 58 0 0 46 0 0 81 0 0 104 0 0 162 0 0 93 0 0 69 0 0 34 0 0 128 0 0 139 0 0 93 0 0 69 0 0 69 0 0 58 0 0 69 0 0 58 0 
0 81 0 0 69 0 0 81 0 0 46 0 0 69 0 0 34 0 0 69 0 0 116 0 0 69 0 0 151 0 0 69 0 0 104 0 0 46 0 0 93 0 0 116 0 0 46 0 0 81 0 0 116 0 0 104 0 0 46 0 0 151 0 0 69 0 0 104 0 0 81 0 0 58 0 0 69 0 0 69 0 0 81 0 0 81 0 0 58 0 0 46 0 0 93 0 0 139 0 0 93 0 0 58 0 0 116 0 0 93 0 0 69 0 0 69 0 0 46 0 0 81 0 0 81 0 0 81 0 0 162 0 0 69 0 0 69 0 0 151 0 0 81 0 0 23 0 0 69 0 0 162 0 0 58 0 0 128 0 0 69 0 0 46 0 0 34 0 0 81 0 0 139 0 0 81 0 0 81 0 0 69 0 0 34 0 0 58 0 0 46 0 
0 81 0 0 93 0 0 116 0 0 81 0 0 34 0 0 46 0 0 93 0 0 46 0 0 58 0 0 69 0 0 81 0 0 69 0 0 93 0 0 104 0 0 116 0 0 46 0 0 46 0 0 23 0 0 58 0 0 151 0 0 69 0 0 58 0 0 128 0 0 58 0 0 58 0 0 151 0 0 93 0 0 58 0 0 58 0 0 116 0 0 58 0 0 46 0 0 116 0 0 58 0 0 116 0 0 93 0 0 93 0 0 69 0 0 93 0 0 81 0 0 58 0 0 58 0 0 104 0 0 46 0 0 128 0 0 128 0 0 69 0 0 104 0 0 104 0 0 46 0 0 81 0 0 93 0 0 93 0 0 81 0 0 93 0 0 128 0 0 104 0 0 93 0 0 69 0 0 93 0 0 93 0 0 93 0 0 11 0 0 58 0 
0 81 0 0 58 0 0 104 0 0 46 0 0 58 0 0 58 0 0 34 0 0 128 0 0 81 0 0 58 0 0 58 0 0 104 0 0 81 0 0 46 0 0 81 0 0 46 0 0 93 0 0 69 0 0 69 0 0 139 0 0 34 0 0 104 0 0 104 0 0 93 0 0 23 0 0 34 0 0 151 0 0 69 0 0 81 0 0 81 0 0 93 0 0 58 0 0 81 0 0 116 0 0 93 0 0 116 0 0 139 0 0 69 0 0 104 0 0 46 0 0 151 0 0 116 0 0 34 0 0 46 0 0 81 0 0 151 0 0 116 0 0 69 0 0 128 0 0 81 0 0 81 0 0 58 0 0 174 0 0 93 0 0 104 0 0 34 0 0 128 0 0 58 0 0 58 0 0 69 0 0 104 0 0 81 0 0 116 0 0 58 0 
0 81 0 0 93 0 0 23 0 0 58 0 0 128 0 0 23 0 0 23 0 0 81 0 0 128 0 0 46 0 0 116 0 0 46 0 0 128 0 0 93 0 0 81 0 0 69 0 0 46 0 0 58 0 0 93 0 0 116 0 0 46 0 0 58 0 0 58 0 0 128 0 0 46 0 0 58 0 0 58 0 0 81 0 0 69 0 0 139 0 0 46 0 0 69 0 0 23 0 0 93 0 0 93 0 0 139 0 0 58 0 0 81 0 0 139 0 0 93 0 0 58 0 0 69 0 0 58 0 0 69 0 0 23 0 0 69 0 0 46 0 0 93 0 0 69 0 0 81 0 0 69 0 0 93 0 0 93 0 0 151 0 0 58 0 0 69 0 0 58 0 0 116 0 0 93 0 0 151 0 0 58 0 0 34 0 0 58 0 0 46 0 
0 81 0 0 34 0 0 69 0 0 104 0 0 116 0 0 58 0 0 69 0 0 46 0 0 116 0 0 139 0 0 116 0 0 69 0 0 116 0 0 81 0 0 81 0 0 69 0 0 58 0 0 46 0 0 46 0 0 69 0 0 139 0 0 58 0 0 58 0 0 104 0 0 81 0 0 128 0 0 69 0 0 46 0 0 81 0 0 128 0 0 81 0 0 116 0 0 81 0 0 69 0 0 69 0 0 69 0 0 81 0 0 34 0 0 23 0 0 58 0 0 116 0 0 93 0 0 58 0 0 58 0 0 116 0 0 128 0 0 46 0 0 69 0 0 11 0 0 139 0 0 81 0 0 81 0 0 128 0 0 104 0 0 11 0 0 93 0 0 34 0 0 104 0 0 128 0 0 46 0 0 46 0 0 69 0 0 58 0 0 139 0 
0 81 0 0 139 0 0 116 0 0 104 0 0 46 0 0 151 0 0 81 0 0 81 0 0 104 0 0 34 0 0 69 0 0 69 0 0 69 0 0 69 0 0 104 0 0 151 0 0 81 0 0 151 0 0 116 0 0 81 0 0 81 0 0 93 0 0 81 0 0 93 0 0 128 0 0 46 0 0 81 0 0 128 0 0 46 0 0 69 0 0 81 0 0 93 0 0 93 0 0 69 0 0 93 0 0 104 0 0 139 0 0 23 0 0 81 0 0 58 0 0 93 0 0 93 0 0 93 0 0 116 0 0 69 0 0 58 0 0 81 0 0 81 0 0 139 0 0 104 0 0 23 0 0 93 0 0 58 0 0 69 0 0 116 0 0 116 0 0 69 0 0 23 0 0 104 0 0 69 0 0 69 0 0 23 0 0 116 0 0 81 0 
0 81 0 0 69 0 0 81 0 0 104 0 0 46 0 0 116 0 0 104 0 0 128 0 0 93 0 0 69 0 0 69 0 0 93 0 0 93 0 0 93 0 0 58 0 0 104 0 0 46 0 0 81 0 0 81 0 0 116 0 0 69 0 0 104 0 0 69 0 0 116 0 0 58 0 0 93 0 0 128 0 0 104 0 0 93 0 0 58 0 0 23 0 0 46 0 0 93 0 0 46 0 0 81 0 0 46 0 0 93 0 0 58 0 0 58 0 0 69 0 0 23 0 0 104 0 0 46 0 0 58 0 0 128 0 0 58 0 0 128 0 0 81 0 0 93 0 0 93 0 0 116 0 0 93 0 0 69 0 0 69 0 0 69 0 0 81 0 0 104 0 0 58 0 0 104 0 0 104 0 0 116 0 0 58 0 0 104 0 0 151 0 
0 81 0 0 58 0 0 46 0 0 34 0 0 69 0 0 104 0 0 151 0 0 81 0 0 128 0 0 116 0 0 104 0 0 69 0 0 58 0 0 116 0 0 93 0 0 128 0 0 104 0 0 69 0 0 46 0 0 81 0 0 46 0 0 23 0 0 151 0 0 58 0 0 69 0 0 34 0 0 81 0 0 46 0 0 81 0 0 69 0 0 69 0 0 116 0 0 81 0 0 81 0 0 58 0 0 151 0 0 58 0 0 116 0 0 93 0 0 23 0 0 81 0 0 46 0 0 128 0 0 151 0 0 34 0 0 69 0 0 128 0 0 81 0 0 69 0 0 128 0 0 151 0 0 93 0 0 128 0 0 69 0 0 58 0 0 58 0 0 81 0 0 69 0 0 46 0 0 116 0 0 81 0 0 93 0 0 69 0 0 58 0 
0 81 0 0 93 0 0 104 0 0 104 0 0 93 0 0 81 0 0 93 0 0 151 0 0 93 0 0 174 0 0 81 0 0 46 0 0 93 0 0 34 0 0 58 0 0 23 0 0 93 0 0 81 0 0 46 0 0 81 0 0 116 0 0 93 0 0 104 0 0 69 0 0 23 0 0 93 0 0 34 0 0 69 0 0 58 0 0 139 0 0 69 0 0 162 0 0 93 0 0 81 0 0 58 0 0 116 0 0 69 0 0 93 0 0 93 0 0 104 0 0 46 0 0 69 0 0 81 0 0 151 0 0 69 0 0 104 0 0 81 0 0 69 0 0 151 0 0 58 0 0 46 0 0 46 0 0 93 0 0 34 0 0 58 0 0 116 0 0 104 0 0 69 0 0 69 0 0 69 0 0 58 0 0 128 0 0 58 0 0 93 0 
0 81 0 0 151 0 0 58 0 0 93 0 0 69 0 0 34 0 0 81 0 0 104 0 0 128 0 0 46 0 0 81 0 0 116 0 0 81 0 0 58 0 0 81 0 0 69 0 0 93 0 0 58 0 0 58 0 0 93 0 0 23 0 0 58 0 0 81 0 0 81 0 0 69 0 0 93 0 0 93 0 0 93 0 0 81 0 0 116 0 0 139 0 0 93 0 0 93 0 0 81 0 0 104 0 0 34 0 0 58 0 0 58 0 0 93 0 0 46 0 0 128 0 0 81 0 0 81 0 0 104 0 0 81 0 0 104 0 0 58 0 0 69 0 0 58 0 0 104 0 0 104 0 0 58 0 0 104 0 0 23 0 0 46 0 0 93 0 0 81 0 0 81 0 0 46 0 0 23 0 0 58 0 0 93 0 0 104 0 0 93 0 
0 81 0 0 58 0 0 128 0 0 151 0 0 58 0 0 81 0 0 139 0 0 46 0 0 81 0 0 58 0 0 46 0 0 58 0 0 104 0 0 23 0 0 93 0 0 34 0 0 116 0 0 104 0 0 81 0 0 128 0 0 58 0 0 58 0 0 58 0 0 69 0 0 162 0 0 69 0 0 104 0 0 58 0 0 81 0 0 81 0 0 104 0 0 81 0 0 34 0 0 162 0 0 46 0 0 46 0 0 69 0 0 58 0 0 116 0 0 58 0 0 151 0 0 151 0 0 104 0 0 58 0 0 58 0 0 116 0 0 81 0 0 93 0 0 69 0 0 69 0 0 46 0 0 93 0 0 93 0 0 104 0 0 93 0 0 69 0 0 93 0 0 46 0 0 104 0 0 46 0 0 116 0 0 104 0 0 46 0 0 69 0 
0 81 0 0 93 0 0 58 0 0 69 0 0 116 0 0 104 0 0 69 0 0 46 0 0 104 0 0 46 0 0 69 0 0 104 0 0 81 0 0 46 0 0 93 0 0 151 0 0 69 0 0 128 0 0 58 0 0 81 0 0 151 0 0 81 0 0 58 0 0 128 0 0 139 0 0 11 0 0 69 0 0 93 0 0 69 0 0 116 0 0 81 0 0 46 0 0 116 0 0 69 0 0 128 0 0 81 0 0 23 0 0 116 0 0 69 0 0 128 0 0 34 0 0 69 0 0 81 0 0 58 0 0 81 0 0 69 0 0 58 0 0 69 0 0 69 0 0 93 0 0 58 0 0 81 0 0 93 0 0 58 0 0 81 0 0 69 0 0 93 0 0 69 0 0 93 0 0 128 0 0 81 0 0 104 0 0 151 0 0 116 0 
0 81 0 0 116 0 0 116 0 0 69 0 0 23 0 0 58 0 0 104 0 0 58 0 0 116 0 0 93 0 0 151 0 0 46 0 0 69 0 0 104 0 0 69 0 0 93 0 0 46 0 0 104 0 0 116 0 0 69 0 0 58 0 0 69 0 0 46 0 0 46 0 0 46 0 0 34 0 0 23 0 0 93 0 0 139 0 0 151 0 0 81 0 0 69 0 0 58 0 0 69 0 0 128 0 0 151 0 0 69 0 0 128 0 0 58 0 0 58 0 0 69 0 0 104 0 0 104 0 0 116 0 0 69 0 0 46 0 0 69 0 0 58 0 0 58 0 0 58 0 0 151 0 0 104 0 0 116 0 0 116 0 0 34 0 0 139 0 0 58 0 0 46 0 0 46 0 0 116 0 0 46 0 0 69 0 0 58 0 0 58 0 
0 81 0 0 104 0 0 81 0 0 69 0 0 23 0 0 151 0 0 34 0 0 116 0 0 128 0 0 128 0 0 139 0 0 69 0 0 128 0 0 116 0 0 46 0 0 81 0 0 58 0 0 58 0 0 128 0 0 93 0 0 58 0 0 81 0 0 128 0 0 93 0 0 81 0 0 174 0 0 93 0 0 69 0 0 46 0 0 116 0 0 69 0 0 58 0 0 69 0 0 151 0 0 69 0 0 116 0 0 46 0 0 46 0 0 81 0 0 128 0 0 128 0 0 81 0 0 58 0 0 81 0 0 58 0 0 69 0 0 69 0 0 104 0 0 58 0 0 46 0 0 81 0 0 46 0 0 58 0 0 81 0 0 93 0 0 81 0 0 174 0 0 93 0 0 58 0 0 104 0 0 69 0 0 93 0 0 104 0 0 23 0 
0 81 0 0 116 0 0 93 0 0 104 0 0 58 0 0 104 0 0 104 0 0 58 0 0 69 0 0 186 0 0 151 0 0 93 0 0 139 0 0 46 0 0 104 0 0 93 0 0 93 0 0 69 0 0 58 0 0 58 0 0 11 0 0 81 0 0 58 0 0 116 0 0 69 0 0 104 0 0 162 0 0 23 0 0 104 0 0 34 0 0 104 0 0 116 0 0 46 0 0 81 0 0 104 0 0 69 0 0 93 0 0 69 0 0 81 0 0 81 0 0 81 0 0 69 0 0 69 0 0 93 0 0 69 0 0 58 0 0 104 0 0 69 0 0 46 0 0 69 0 0 69 0 0 93 0 0 139 0 0 93 0 0 116 0 0 69 0 0 58 0 0 69 0 0 69 0 0 104 0 0 58 0 0 81 0 0 58 0 0 93 0 
0 81 0 0 104 0 0 81 0 0 128 0 0 139 0 0 151 0 0 128 0 0 128 0 0 58 0 0 128 0 0 58 0 0 81 0 0 46 0 0 46 0 0 93 0 0 46 0 0 93 0 0 58 0 0 46 0 0 128 0 0 69 0 0 69 0 0 139 0 0 81 0 0 23 0 0 69 0 0 93 0 0 58 0 0 93 0 0 116 0 0 58 0 0 58 0 0 58 0 0 23 0 0 104 0 0 128 0 0 69 0 0 11 0 0 139 0 0 93 0 0 69 0 0 151 0 0 58 0 0 69 0 0 69 0 0 58 0 0 58 0 0 46 0 0 104 0 0 81 0 0 81 0 0 104 0 0 116 0 0 104 0 0 174 0 0 81 0 0 81 0 0 93 0 0 69 0 0 104 0 0 81 0 0 139 0 0 104 0 0 46 0 
0 81 0 0 46 0 0 93 0 0 116 0 0 58 0 0 128 0 0 104 0 0 93 0 0 174 0 0 104 0 0 81 0 0 34 0 0 81 0 0 93 0 0 104 0 0 104 0 0 104 0 0 23 0 0 58 0 0 93 0 0 81 0 0 23 0 0 69 0 0 116 0 0 81 0 0 116 0 0 69 0 0 104 0 0 104 0 0 81 0 0 34 0 0 69 0 0 46 0 0 69 0 0 46 0 0 81 0 0 81 0 0 139 0 0 104 0 0 93 0 0 128 0 0 58 0 0 104 0 0 69 0 0 93 0 0 58 0 0 46 0 0 69 0 0 81 0 0 93 0 0 23 0 0 116 0 0 104 0 0 81 0 0 93 0 0 93 0 0 128 0 0 69 0 0 151 0 0 93 0 0 81 0 0 93 0 0 128 0 0 34 0 
0 81 0 0 69 0 0 81 0 0 104 0 0 104 0 0 151 0 0 81 0 0 58 0 0 104 0 0 151 0 0 93 0 0 34 0 0 128 0 0 69 0 0 34 0 0 81 0 0 46 0 0 151 0 0 58 0 0 46 0 0 34 0 0 93 0 0 11 0 0 174 0 0 69 0 0 104 0 0 93 0 0 81 0 0 151 0 0 93 0 0 46 0 0 93 0 0 81 0 0 162 0 0 81 0 0 81 0 0 69 0 0 81 0 0 23 0 0 116 0 0 151 0 0 46 0 0 104 0 0 46 0 0 58 0 0 151 0 0 81 0 0 69 0 0 81 0 0 23 0 0 104 0 0 46 0 0 23 0 0 151 0 0 46 0 0 139 0 0 69 0 0 93 0 0 69 0 0 93 0 0 116 0 0 46 0 0 34 0 0 23 0 
0 81 0 0 69 0 0 81 0 0 162 0 0 93 0 0 81 0 0 69 0 0 81 0 0 93 0 0 104 0 0 46 0 0 116 0 0 58 0 0 81 0 0 58 0 0 104 0 0 58 0 0 104 0 0 58 0 0 34 0 0 58 0 0 69 0 0 58 0 0 81 0 0 93 0 0 81 0 0 81 0 0 162 0 0 104 0 0 58 0 0 128 0 0 139 0 0 104 0 0 58 0 0 93 0 0 58 0 0 93 0 0 81 0 0 93 0 0 93 0 0 93 0 0 46 0 0 58 0 0 93 0 0 81 0 0 104 0 0 46 0 0 93 0 0 104 0 0 116 0 0 46 0 0 116 0 0 116 0 0 81 0 0 128 0 0 93 0 0 58 0 0 23 0 0 116 0 0 139 0 0 116 0 0 116 0 0 93 0 0 69 0 
0 81 0 0 34 0 0 58 0 0 46 0 0 93 0 0 46 0 0 93 0 0 69 0 0 58 0 0 93 0 0 116 0 0 46 0 0 46 0 0 197 0 0 58 0 0 69 0 0 58 0 0 93 0 0 58 0 0 81 0 0 81 0 0 93 0 0 69 0 0 93 0 0 93 0 0 93 0 0 93 0 0 93 0 0 116 0 0 46 0 0 23 0 0 104 0 0 162 0 0 128 0 0 93 0 0 174 0 0 93 0 0 128 0 0 58 0 0 69 0 0 128 0 0 93 0 0 104 0 0 93 0 0 93 0 0 116 0 0 58 0 0 139 0 0 116 0 0 104 0 0 23 0 0 116 0 0 34 0 0 93 0 0 128 0 0 69 0 0 93 0 0 104 0 0 81 0 0 46 0 0 93 0 0 104 0 0 69 0 0 58 0 
0 81 0 0 93 0 0 104 0 0 139 0 0 69 0 0 69 0 0 93 0 0 162 0 0 69 0 0 58 0 0 34 0 0 34 0 0 104 0 0 104 0 0 58 0 0 93 0 0 58 0 0 93 0 0 69 0 0 128 0 0 128 0 0 116 0 0 69 0 0 139 0 0 104 0 0 93 0 0 93 0 0 104 0 0 69 0 0 11 0 0 23 0 0 81 0 0 93 0 0 69 0 0 81 0 0 93 0 0 151 0 0 104 0 0 69 0 0 69 0 0 69 0 0 34 0 0 23 0 0 104 0 0 58 0 0 116 0 0 81 0 0 93 0 0 104 0 0 81 0 0 151 0 0 81 0 0 93 0 0 69 0 0 11 0 0 116 0 0 151 0 0 34 0 0 81 0 0 116 0 0 116 0 0 69 0 0 104 0 0 69 0 
0 81 0 0 81 0 0 58 0 0 81 0 0 23 0 0 104 0 0 46 0 0 46 0 0 128 0 0 128 0 0 69 0 0 104 0 0 93 0 0 81 0 0 58 0 0 116 0 0 46 0 0 58 0 0 81 0 0 128 0 0 46 0 0 93 0 0 93 0 0 69 0 0 58 0 0 81 0 0 93 0 0 23 0 0 58 0 0 58 0 0 69 0 0 81 0 0 69 0 0 46 0 0 93 0 0 104 0 0 58 0 0 11 0 0 116 0 0 69 0 0 58 0 0 58 0 0 46 0 0 93 0 0 81 0 0 34 0 0 93 0 0 116 0 0 174 0 0 93 0 0 46 0 0 128 0 0 128 0 0 11 0 0 81 0 0 81 0 0 46 0 0 69 0 0 151 0 0 69 0 0 34 0 0 128 0 0 128 0 0 116 0 
0 81 0 0 81 0 0 81 0 0 34 0 0 104 0 0 139 0 0 69 0 0 104 0 0 69 0 0 46 0 0 34 0 0 69 0 0 151 0 0 81 0 0 104 0 0 69 0 0 151 0 0 58 0 0 46 0 0 69 0 0 11 0 0 116 0 0 104 0 0 81 0 0 81 0 0 34 0 0 46 0 0 69 0 0 81 0 0 93 0 0 162 0 0 69 0 0 34 0 0 34 0 0 128 0 0 34 0 0 69 0 0 93 0 0 116 0 0 81 0 0 58 0 0 116 0 0 93 0 0 69 0 0 69 0 0 139 0 0 81 0 0 69 0 0 81 0 0 93 0 0 139 0 0 93 0 0 69 0 0 116 0 0 81 0 0 58 0 0 93 0 0 69 0 0 69 0 0 58 0 0 104 0 0 46 0 0 69 0 0 34 0 
0 81 0 0 93 0 0 81 0 0 69 0 0 139 0 0 81 0 0 128 0 0 174 0 0 81 0 0 81 0 0 93 0 0 93 0 0 93 0 0 58 0 0 104 0 0 23 0 0 116 0 0 58 0 0 69 0 0 46 0 0 81 0 0 81 0 0 69 0 0 46 0 0 93 0 0 151 0 0 116 0 0 58 0 0 46 0 0 104 0 0 128 0 0 69 0 0 128 0 0 81 0 0 104 0 0 128 0 0 58 0 0 34 0 0 69 0 0 104 0 0 81 0 0 104 0 0 81 0 0 93 0 0 93 0 0 58 0 0 174 0 0 58 0 0 81 0 0 128 0 0 69 0 0 58 0 0 93 0 0 151 0 0 46 0 0 93 0 0 116 0 0 34 0 0 81 0 0 93 0 0 128 0 0 46 0 0 93 0 0 81 0 
0 81 0 0 46 0 0 104 0 0 69 0 0 81 0 0 104 0 0 34 0 0 81 0 0 69 0 0 69 0 0 151 0 0 46 0 0 116 0 0 116 0 0 93 0 0 69 0 0 128 0 0 34 0 0 128 0 0 93 0 0 81 0 0 128 0 0 69 0 0 104 0 0 139 0 0 69 0 0 58 0 0 93 0 0 93 0 0 69 0 0 58 0 0 34 0 0 139 0 0 139 0 0 93 0 0 58 0 0 116 0 0 104 0 0 23 0 0 58 0 0 69 0 0 69 0 0 81 0 0 46 0 0 69 0 0 46 0 0 93 0 0 69 0 0 93 0 0 69 0 0 93 0 0 23 0 0 104 0 0 34 0 0 69 0 0 69 0 0 34 0 0 23 0 0 58 0 0 128 0 0 93 0 0 104 0 0 23 0 0 116 0 
0 81 0 0 93 0 0 104 0 0 104 0 0 69 0 0 93 0 0 104 0 0 69 0 0 58 0 0 69 0 0 69 0 0 93 0 0 186 0 0 81 0 0 69 0 0 69 0 0 104 0 0 116 0 0 139 0 0 69 0 0 69 0 0 116 0 0 116 0 0 116 0 0 116 0 0 93 0 0 46 0 0 58 0 0 104 0 0 46 0 0 69 0 0 128 0 0 93 0 0 81 0 0 69 0 0 58 0 0 93 0 0 128 0 0 104 0 0 104 0 0 46 0 0 69 0 0 46 0 0 104 0 0 93 0 0 46 0 0 58 0 0 69 0 0 69 0 0 151 0 0 69 0 0 116 0 0 81 0 0 81 0 0 151 0 0 69 0 0 81 0 0 58 0 0 104 0 0 69 0 0 81 0 0 104 0 0 93 0 0 104 0 
0 81 0 0 81 0 0 116 0 0 81 0 0 104 0 0 69 0 0 69 0 0 128 0 0 11 0 0 128 0 0 81 0 0 69 0 0 116 0 0 69 0 0 58 0 0 34 0 0 81 0 0 69 0 0 69 0 0 58 0 0 116 0 0 104 0 0 128 0 0 128 0 0 58 0 0 104 0 0 69 0 0 81 0 0 34 0 0 104 0 0 81 0 0 139 0 0 69 0 0 81 0 0 93 0 0 69 0 0 151 0 0 46 0 0 69 0 0 104 0 0 116 0 0 69 0 0 23 0 0 46 0 0 128 0 0 116 0 0 104 0 0 104 0 0 104 0 0 93 0 0 93 0 0 139 0 0 46 0 0 116 0 0 69 0 0 58 0 0 93 0 0 128 0 0 69 0 0 93 0 0 46 0 0 128 0 0 58 0 0 69 0 
0 81 0 0 104 0 0 34 0 0 23 0 0 151 0 0 81 0 0 116 0 0 81 0 0 58 0 0 69 0 0 128 0 0 151 0 0 46 0 0 69 0 0 23 0 0 58 0 0 69 0 0 58 0 0 46 0 0 81 0 0 69 0 0 139 0 0 81 0 0 69 0 0 58 0 0 46 0 0 23 0 0 69 0 0 128 0 0 69 0 0 69 0 0 69 0 0 69 0 0 69 0 0 93 0 0 104 0 0 58 0 0 46 0 0 69 0 0 116 0 0 81 0 0 58 0 0 58 0 0 116 0 0 81 0 0 46 0 0 69 0 0 58 0 0 81 0 0 81 0 0 116 0 0 116 0 0 93 0 0 116 0 0 34 0 0 104 0 0 128 0 0 93 0 0 81 0 0 46 0 0 116 0 0 116 0 0 104 0 0 81 0 
0 81 0 0 116 0 0 128 0 0 69 0 0 116 0 0 69 0 0 104 0 0 116 0 0 58 0 0 93 0 0 93 0 0 116 0 0 46 0 0 81 0 0 34 0 0 58 0 0 81 0 0 104 0 0 139 0 0 81 0 0 81 0 0 58 0 0 81 0 0 128 0 0 58 0 0 128 0 0 104 0 0 151 0 0 128 0 0 81 0 0 81 0 0 34 0 0 58 0 0 34 0 0 93 0 0 81 0 0 34 0 0 69 0 0 23 0 0 58 0 0 93 0 0 128 0 0 93 0 0 104 0 0 104 0 0 69 0 0 93 0 0 81 0 0 139 0 0 93 0 0 46 0 0 116 0 0 104 0 0 69 0 0 128 0 0 46 0 0 46 0 0 104 0 0 104 0 0 128 0 0 116 0 0 93 0 0 139 0 0 139 0 
0 81 0 0 93 0 0 69 0 0 34 0 0 58 0 0 93 0 0 93 0 0 128 0 0 81 0 0 81 0 0 81 0 0 116 0 0 81 0 0 34 0 0 139 0 0 81 0 0 58 0 0 46 0 0 69 0 0 93 0 0 116 0 0 93 0 0 46 0 0 58 0 0 58 0 0 93 0 0 104 0 0 81 0 0 69 0 0 128 0 0 69 0 0 58 0 0 69 0 0 58 0 0 11 0 0 116 0 0 58 0 0 58 0 0 116 0 0 104 0 0 69 0 0 58 0 0 104 0 0 46 0 0 151 0 0 58 0 0 104 0 0 58 0 0 104 0 0 128 0 0 34 0 0 93 0 0 69 0 0 104 0 0 128 0 0 69 0 0 93 0 0 23 0 0 93 0 0 58 0 0 104 0 0 139 0 0 0 0 0 69 0 
0 81 0 0 34 0 0 93 0 0 81 0 0 81 0 0 58 0 0 46 0 0 104 0 0 81 0 0 93 0 0 69 0 0 69 0 0 58 0 0 104 0 0 58 0 0 69 0 0 69 0 0 69 0 0 93 0 0 128 0 0 139 0 0 104 0 0 81 0 0 46 0 0 58 0 0 151 0 0 46 0 0 104 0 0 81 0 0 104 0 0 104 0 0 116 0 0 58 0 0 46 0 0 58 0 0 58 0 0 46 0 0 139 0 0 81 0 0 151 0 0 58 0 0 93 0 0 93 0 0 69 0 0 116 0 0 58 0 0 23 0 0 93 0 0 46 0 0 34 0 0 23 0 0 69 0 0 58 0 0 69 0 0 116 0 0 34 0 0 81 0 0 116 0 0 104 0 0 69 0 0 81 0 0 139 0 0 69 0 0 116 0 
