P3
62 62
255
0 12 0 0 12 0 0 12 0 0 12 0 0 12 0 0 12 0 0 12 0 0 12 0 0 12 0 0 12 0 0 12 0 0 12 0 0 12 0 0 12 0 0 12 0 0 12 0 0 12 0 0 12 0 0 12 0 0 12 0 0 12 0 0 12 0 0 12 0 0 12 0 0 12 0 0 12 0 0 12 0 0 12 0 0 12 0 0 12 0 0 12 0 0 12 0 0 12 0 0 12 0 0 12 0 0 12 0 0 12 0 0 12 0 0 12 0 0 12 0 0 12 0 0 12 0 0 12 0 0 12 0 0 12 0 0 12 0 0 12 0 0 12 0 0 12 0 0 12 0 0 12 0 0 12 0 0 12 0 0 12 0 0 12 0 0 12 0 0 12 0 0 12 0 0 12 0 0 12 0 0 12 0 0 12 0 
0 12 0 0 6 0 0 6 0 0 30 0 0 18 0 0 12 0 0 12 0 0 18 0 0 12 0 0 0 0 0 0 0 0 12 0 0 24 0 0 12 0 0 18 0 0 54 0 0 24 0 0 6 0 0 30 0 0 18 0 0 42 0 0 12 0 0 12 0 0 0 0 0 18 0 0 36 0 0 12 0 0 18 0 0 30 0 0 6 0 0 12 0 0 18 0 0 24 0 0 0 0 0 30 0 0 24 0 0 30 0 0 12 0 0 12 0 0 24 0 0 18 0 0 30 0 0 48 0 0 18 0 0 18 0 0 18 0 0 6 0 0 30 0 0 42 0 0 42 0 0 24 0 0 36 0 0 67 0 0 24 0 0 12 0 0 12 0 0 24 0 0 6 0 0 42 0 0 12 0 0 30 0 0 60 0 
0 12 0 0 6 0 0 18 0 0 12 0 0 12 0 0 0 0 0 24 0 0 18 0 0 24 0 0 30 0 0 42 0 0 12 0 0 18 0 0 12 0 0 30 0 0 12 0 0 24 0 0 30 0 0 30 0 0 12 0 0 18 0 0 48 0 0 18 0 0 6 0 0 42 0 0 24 0 0 67 0 0 12 0 0 24 0 0 42 0 0 30 0 0 12 0 0 36 0 0 54 0 0 30 0 0 60 0 0 48 0 0 73 0 0 36 0 0 60 0 0 36 0 0 24 0 0 60 0 0 36 0 0 42 0 0 42 0 0 36 0 0 18 0 0 48 0 0 18 0 0 36 0 0 42 0 0 36 0 0 60 0 0 12 0 0 73 0 0 24 0 0 36 0 0 18 0 0 18 0 0 48 0 0 48 0 
0 12 0 0 30 0 0 12 0 0 0 0 0 24 0 0 54 0 0 30 0 0 12 0 0 18 0 0 18 0 0 12 0 0 0 0 0 30 0 0 24 0 0 48 0 0 18 0 0 42 0 0 36 0 0 12 0 0 6 0 0 30 0 0 12 0 0 54 0 0 54 0 0 48 0 0 42 0 0 60 0 0 30 0 0 60 0 0 30 0 0 42 0 0 48 0 0 48 0 0 30 0 0 42 0 0 36 0 0 12 0 0 54 0 0 36 0 0 30 0 0 48 0 0 42 0 0 54 0 0 36 0 0 48 0 0 30 0 0 36 0 0 48 0 0 30 0 0 60 0 0 24 0 0 54 0 0 54 0 0 67 0 0 54 0 0 73 0 0 36 0 0 67 0 0 54 0 0 67 0 0 67 0 0 48 0 
0 12 0 0 18 0 0 12 0 0 24 0 0 24 0 0 42 0 0 18 0 0 30 0 0 24 0 0 30 0 0 18 0 0 18 0 0 42 0 0 67 0 0 24 0 0 30 0 0 36 0 0 30 0 0 48 0 0 36 0 0 36 0 0 60 0 0 42 0 0 36 0 0 48 0 0 36 0 0 36 0 0 12 0 0 24 0 0 18 0 0 48 0 0 36 0 0 48 0 0 48 0 0 36 0 0 48 0 0 30 0 0 79 0 0 60 0 0 54 0 0 42 0 0 30 0 0 36 0 0 36 0 0 48 0 0 67 0 0 54 0 0 67 0 0 67 0 0 73 0 0 121 0 0 60 0 0 73 0 0 103 0 0 79 0 0 79 0 0 91 0 0 73 0 0 67 0 0 67 0 0 103 0 0 109 0 
0 12 0 0 12 0 0 0 0 0 54 0 0 42 0 0 36 0 0 12 0 0 24 0 0 18 0 0 18 0 0 24 0 0 12 0 0 30 0 0 30 0 0 60 0 0 42 0 0 36 0 0 24 0 0 42 0 0 36 0 0 36 0 0 36 0 0 73 0 0 60 0 0 48 0 0 60 0 0 24 0 0 30 0 0 48 0 0 30 0 0 24 0 0 42 0 0 42 0 0 73 0 0 73 0 0 48 0 0 67 0 0 73 0 0 48 0 0 91 0 0 121 0 0 91 0 0 91 0 0 109 0 0 79 0 0 73 0 0 85 0 0 103 0 0 103 0 0 60 0 0 67 0 0 109 0 0 79 0 0 48 0 0 79 0 0 54 0 0 67 0 0 48 0 0 54 0 0 48 0 0 73 0 0 85 0 
0 12 0 0 12 0 0 24 0 0 30 0 0 18 0 0 12 0 0 30 0 0 48 0 0 42 0 0 12 0 0 30 0 0 54 0 0 48 0 0 60 0 0 60 0 0 42 0 0 48 0 0 42 0 0 12 0 0 36 0 0 48 0 0 54 0 0 48 0 0 36 0 0 30 0 0 24 0 0 54 0 0 54 0 0 36 0 0 54 0 0 67 0 0 36 0 0 67 0 0 103 0 0 60 0 0 91 0 0 79 0 0 97 0 0 73 0 0 91 0 0 103 0 0 103 0 0 73 0 0 109 0 0 97 0 0 79 0 0 67 0 0 103 0 0 79 0 0 91 0 0 73 0 0 85 0 0 60 0 0 79 0 0 60 0 0 48 0 0 48 0 0 73 0 0 73 0 0 67 0 0 79 0 0 48 0 
0 12 0 0 18 0 0 18 0 0 12 0 0 30 0 0 24 0 0 48 0 0 42 0 0 24 0 0 12 0 0 60 0 0 36 0 0 60 0 0 54 0 0 18 0 0 36 0 0 24 0 0 36 0 0 54 0 0 30 0 0 48 0 0 60 0 0 24 0 0 48 0 0 36 0 0 48 0 0 48 0 0 73 0 0 73 0 0 103 0 0 91 0 0 134 0 0 91 0 0 73 0 0 85 0 0 60 0 0 73 0 0 42 0 0 109 0 0 121 0 0 67 0 0 91 0 0 91 0 0 42 0 0 97 0 0 48 0 0 73 0 0 109 0 0 48 0 0 36 0 0 42 0 0 30 0 0 48 0 0 24 0 0 73 0 0 109 0 0 54 0 0 48 0 0 67 0 0 48 0 0 48 0 0 60 0 
0 12 0 0 12 0 0 24 0 0 18 0 0 24 0 0 18 0 0 42 0 0 24 0 0 36 0 0 48 0 0 36 0 0 42 0 0 48 0 0 36 0 0 24 0 0 48 0 0 48 0 0 36 0 0 30 0 0 60 0 0 42 0 0 36 0 0 48 0 0 54 0 0 67 0 0 121 0 0 73 0 0 79 0 0 91 0 0 67 0 0 103 0 0 140 0 0 67 0 0 97 0 0 73 0 0 67 0 0 79 0 0 54 0 0 121 0 0 60 0 0 85 0 0 67 0 0 48 0 0 18 0 0 54 0 0 79 0 0 36 0 0 67 0 0 54 0 0 54 0 0 54 0 0 54 0 0 91 0 0 54 0 0 79 0 0 54 0 0 79 0 0 30 0 0 42 0 0 36 0 0 36 0 0 30 0 
0 12 0 0 0 0 0 30 0 0 18 0 0 30 0 0 18 0 0 12 0 0 12 0 0 48 0 0 30 0 0 42 0 0 30 0 0 12 0 0 30 0 0 54 0 0 30 0 0 30 0 0 54 0 0 54 0 0 67 0 0 67 0 0 73 0 0 103 0 0 73 0 0 79 0 0 73 0 0 91 0 0 60 0 0 73 0 0 79 0 0 79 0 0 85 0 0 79 0 0 109 0 0 85 0 0 48 0 0 60 0 0 54 0 0 73 0 0 54 0 0 79 0 0 48 0 0 73 0 0 60 0 0 48 0 0 36 0 0 67 0 0 24 0 0 79 0 0 42 0 0 48 0 0 36 0 0 30 0 0 42 0 0 30 0 0 6 0 0 0 0 0 12 0 0 0 0 0 6 0 0 12 0 0 6 0 
0 12 0 0 0 0 0 42 0 0 12 0 0 18 0 0 24 0 0 30 0 0 60 0 0 36 0 0 42 0 0 36 0 0 73 0 0 48 0 0 24 0 0 48 0 0 24 0 0 42 0 0 73 0 0 67 0 0 48 0 0 121 0 0 91 0 0 79 0 0 85 0 0 103 0 0 67 0 0 79 0 0 79 0 0 67 0 0 54 0 0 73 0 0 91 0 0 85 0 0 48 0 0 60 0 0 42 0 0 79 0 0 54 0 0 42 0 0 30 0 0 54 0 0 48 0 0 48 0 0 36 0 0 54 0 0 48 0 0 67 0 0 73 0 0 36 0 0 24 0 0 48 0 0 6 0 0 6 0 0 18 0 0 12 0 0 6 0 0 6 0 0 0 0 0 6 0 0 0 0 0 6 0 0 12 0 
0 12 0 0 12 0 0 12 0 0 0 0 0 18 0 0 12 0 0 54 0 0 36 0 0 42 0 0 30 0 0 73 0 0 24 0 0 48 0 0 60 0 0 24 0 0 73 0 0 48 0 0 67 0 0 103 0 0 109 0 0 79 0 0 73 0 0 79 0 0 85 0 0 97 0 0 54 0 0 79 0 0 109 0 0 97 0 0 42 0 0 48 0 0 67 0 0 54 0 0 67 0 0 79 0 0 109 0 0 48 0 0 42 0 0 60 0 0 42 0 0 54 0 0 54 0 0 36 0 0 30 0 0 18 0 0 6 0 0 6 0 0 6 0 0 6 0 0 24 0 0 6 0 0 0 0 0 6 0 0 0 0 0 12 0 0 0 0 0 0 0 0 0 0 0 0 0 0 0 0 0 0 0 0 6 0 
0 12 0 0 24 0 0 18 0 0 30 0 0 42 0 0 30 0 0 48 0 0 60 0 0 48 0 0 12 0 0 48 0 0 48 0 0 30 0 0 54 0 0 36 0 0 67 0 0 67 0 0 60 0 0 79 0 0 73 0 0 103 0 0 73 0 0 97 0 0 67 0 0 79 0 0 73 0 0 60 0 0 60 0 0 48 0 0 73 0 0 79 0 0 24 0 0 54 0 0 48 0 0 54 0 0 48 0 0 79 0 0 42 0 0 30 0 0 30 0 0 36 0 0 18 0 0 0 0 0 18 0 0 6 0 0 12 0 0 6 0 0 6 0 0 0 0 0 6 0 0 6 0 0 0 0 0 0 0 0 12 0 0 0 0 0 0 0 0 12 0 0 36 0 0 30 0 0 48 0 0 91 0 0 103 0 
0 12 0 0 12 0 0 12 0 0 24 0 0 67 0 0 30 0 0 60 0 0 54 0 0 36 0 0 30 0 0 24 0 0 60 0 0 54 0 0 79 0 0 48 0 0 91 0 0 73 0 0 140 0 0 91 0 0 109 0 0 79 0 0 121 0 0 79 0 0 97 0 0 60 0 0 54 0 0 97 0 0 54 0 0 48 0 0 54 0 0 30 0 0 42 0 0 91 0 0 42 0 0 48 0 0 60 0 0 30 0 0 85 0 0 12 0 0 12 0 0 6 0 0 18 0 0 12 0 0 0 0 0 6 0 0 0 0 0 0 0 0 6 0 0 0 0 0 6 0 0 0 0 0 0 0 0 0 0 0 30 0 0 30 0 0 30 0 0 91 0 0 73 0 0 79 0 0 48 0 0 54 0 0 42 0 
0 12 0 0 18 0 0 30 0 0 48 0 0 24 0 0 60 0 0 60 0 0 18 0 0 24 0 0 54 0 0 48 0 0 24 0 0 36 0 0 48 0 0 73 0 0 91 0 0 91 0 0 85 0 0 73 0 0 109 0 0 67 0 0 91 0 0 97 0 0 73 0 0 48 0 0 42 0 0 48 0 0 73 0 0 54 0 0 67 0 0 48 0 0 42 0 0 79 0 0 36 0 0 54 0 0 24 0 0 0 0 0 18 0 0 18 0 0 12 0 0 6 0 0 0 0 0 6 0 0 0 0 0 0 0 0 6 0 0 0 0 0 6 0 0 12 0 0 36 0 0 30 0 0 54 0 0 91 0 0 85 0 0 73 0 0 91 0 0 60 0 0 42 0 0 30 0 0 30 0 0 0 0 0 12 0 
0 12 0 0 54 0 0 12 0 0 18 0 0 30 0 0 42 0 0 42 0 0 36 0 0 48 0 0 30 0 0 24 0 0 73 0 0 67 0 0 91 0 0 91 0 0 73 0 0 103 0 0 109 0 0 79 0 0 48 0 0 73 0 0 48 0 0 48 0 0 36 0 0 79 0 0 42 0 0 30 0 0 36 0 0 48 0 0 67 0 0 48 0 0 42 0 0 36 0 0 6 0 0 6 0 0 0 0 0 12 0 0 0 0 0 0 0 0 0 0 0 6 0 0 0 0 0 6 0 0 0 0 0 0 0 0 24 0 0 24 0 0 36 0 0 91 0 0 60 0 0 85 0 0 48 0 0 54 0 0 12 0 0 30 0 0 12 0 0 0 0 0 6 0 0 12 0 0 6 0 0 6 0 0 18 0 
0 12 0 0 24 0 0 24 0 0 42 0 0 36 0 0 36 0 0 48 0 0 24 0 0 48 0 0 30 0 0 42 0 0 48 0 0 67 0 0 73 0 0 91 0 0 103 0 0 67 0 0 73 0 0 79 0 0 121 0 0 85 0 0 48 0 0 54 0 0 36 0 0 54 0 0 54 0 0 91 0 0 79 0 0 79 0 0 42 0 0 36 0 0 24 0 0 18 0 0 6 0 0 6 0 0 6 0 0 0 0 0 0 0 0 0 0 0 0 0 0 0 0 0 0 0 0 12 0 0 30 0 0 67 0 0 91 0 0 48 0 0 36 0 0 54 0 0 60 0 0 48 0 0 18 0 0 12 0 0 24 0 0 18 0 0 36 0 0 36 0 0 12 0 0 18 0 0 12 0 0 24 0 0 12 0 
0 12 0 0 6 0 0 30 0 0 36 0 0 30 0 0 24 0 0 42 0 0 36 0 0 36 0 0 54 0 0 73 0 0 67 0 0 60 0 0 140 0 0 85 0 0 109 0 0 73 0 0 67 0 0 85 0 0 85 0 0 60 0 0 30 0 0 79 0 0 24 0 0 54 0 0 54 0 0 48 0 0 36 0 0 54 0 0 30 0 0 6 0 0 6 0 0 6 0 0 0 0 0 6 0 0 6 0 0 0 0 0 6 0 0 0 0 0 0 0 0 0 0 0 18 0 0 54 0 0 42 0 0 91 0 0 48 0 0 48 0 0 24 0 0 18 0 0 12 0 0 6 0 0 30 0 0 6 0 0 18 0 0 24 0 0 36 0 0 24 0 0 54 0 0 60 0 0 48 0 0 30 0 0 67 0 
0 12 0 0 30 0 0 30 0 0 12 0 0 48 0 0 42 0 0 12 0 0 54 0 0 30 0 0 54 0 0 67 0 0 103 0 0 79 0 0 91 0 0 73 0 0 79 0 0 79 0 0 85 0 0 60 0 0 73 0 0 79 0 0 73 0 0 48 0 0 67 0 0 79 0 0 48 0 0 30 0 0 30 0 0 0 0 0 0 0 0 12 0 0 6 0 0 0 0 0 12 0 0 0 0 0 6 0 0 0 0 0 0 0 0 36 0 0 30 0 0 91 0 0 42 0 0 73 0 0 91 0 0 54 0 0 30 0 0 18 0 0 24 0 0 18 0 0 18 0 0 6 0 0 24 0 0 24 0 0 0 0 0 36 0 0 42 0 0 42 0 0 42 0 0 73 0 0 54 0 0 97 0 0 152 0 
0 12 0 0 18 0 0 12 0 0 6 0 0 36 0 0 36 0 0 36 0 0 30 0 0 60 0 0 67 0 0 48 0 0 109 0 0 73 0 0 109 0 0 109 0 0 48 0 0 121 0 0 85 0 0 73 0 0 54 0 0 42 0 0 48 0 0 60 0 0 48 0 0 30 0 0 30 0 0 12 0 0 12 0 0 18 0 0 0 0 0 0 0 0 6 0 0 0 0 0 0 0 0 0 0 0 12 0 0 36 0 0 42 0 0 73 0 0 73 0 0 48 0 0 42 0 0 42 0 0 30 0 0 0 0 0 6 0 0 6 0 0 24 0 0 12 0 0 48 0 0 30 0 0 54 0 0 48 0 0 42 0 0 42 0 0 60 0 0 85 0 0 79 0 0 146 0 0 152 0 0 146 0 0 146 0 
0 12 0 0 42 0 0 18 0 0 30 0 0 36 0 0 36 0 0 48 0 0 48 0 0 42 0 0 67 0 0 121 0 0 79 0 0 103 0 0 79 0 0 67 0 0 73 0 0 85 0 0 60 0 0 79 0 0 42 0 0 54 0 0 48 0 0 54 0 0 67 0 0 36 0 0 48 0 0 6 0 0 12 0 0 6 0 0 6 0 0 6 0 0 0 0 0 0 0 0 0 0 0 0 0 0 30 0 0 91 0 0 36 0 0 48 0 0 54 0 0 48 0 0 24 0 0 0 0 0 0 0 0 36 0 0 6 0 0 42 0 0 73 0 0 24 0 0 18 0 0 42 0 0 30 0 0 73 0 0 115 0 0 97 0 0 121 0 0 121 0 0 146 0 0 97 0 0 73 0 0 54 0 0 67 0 
0 12 0 0 12 0 0 48 0 0 12 0 0 60 0 0 36 0 0 54 0 0 60 0 0 36 0 0 73 0 0 91 0 0 73 0 0 73 0 0 121 0 0 91 0 0 48 0 0 48 0 0 30 0 0 73 0 0 48 0 0 48 0 0 42 0 0 36 0 0 30 0 0 0 0 0 0 0 0 12 0 0 0 0 0 6 0 0 0 0 0 6 0 0 0 0 0 12 0 0 36 0 0 54 0 0 60 0 0 73 0 0 48 0 0 42 0 0 18 0 0 0 0 0 24 0 0 18 0 0 30 0 0 12 0 0 54 0 0 30 0 0 60 0 0 42 0 0 73 0 0 67 0 0 164 0 0 134 0 0 152 0 0 134 0 0 152 0 0 60 0 0 79 0 0 48 0 0 24 0 0 12 0 0 18 0 
0 12 0 0 12 0 0 18 0 0 54 0 0 42 0 0 73 0 0 48 0 0 24 0 0 48 0 0 103 0 0 79 0 0 79 0 0 97 0 0 79 0 0 97 0 0 48 0 0 54 0 0 79 0 0 48 0 0 60 0 0 54 0 0 36 0 0 18 0 0 6 0 0 6 0 0 6 0 0 6 0 0 12 0 0 0 0 0 0 0 0 0 0 0 18 0 0 67 0 0 48 0 0 91 0 0 91 0 0 54 0 0 30 0 0 0 0 0 30 0 0 36 0 0 12 0 0 12 0 0 18 0 0 24 0 0 42 0 0 60 0 0 60 0 0 73 0 0 85 0 0 121 0 0 158 0 0 128 0 0 109 0 0 67 0 0 73 0 0 36 0 0 12 0 0 6 0 0 24 0 0 12 0 0 0 0 
0 12 0 0 0 0 0 6 0 0 54 0 0 36 0 0 60 0 0 36 0 0 48 0 0 54 0 0 73 0 0 85 0 0 85 0 0 67 0 0 97 0 0 73 0 0 36 0 0 36 0 0 24 0 0 67 0 0 48 0 0 67 0 0 30 0 0 6 0 0 12 0 0 6 0 0 0 0 0 0 0 0 0 0 0 0 0 0 0 0 0 24 0 0 54 0 0 48 0 0 60 0 0 48 0 0 42 0 0 18 0 0 18 0 0 6 0 0 18 0 0 42 0 0 30 0 0 30 0 0 48 0 0 60 0 0 42 0 0 54 0 0 85 0 0 97 0 0 188 0 0 170 0 0 121 0 0 97 0 0 48 0 0 36 0 0 42 0 0 12 0 0 6 0 0 6 0 0 0 0 0 12 0 0 6 0 
0 12 0 0 18 0 0 42 0 0 48 0 0 48 0 0 48 0 0 30 0 0 36 0 0 67 0 0 79 0 0 103 0 0 97 0 0 79 0 0 60 0 0 48 0 0 79 0 0 54 0 0 54 0 0 79 0 0 30 0 0 36 0 0 0 0 0 6 0 0 6 0 0 0 0 0 6 0 0 0 0 0 0 0 0 12 0 0 30 0 0 91 0 0 60 0 0 54 0 0 54 0 0 18 0 0 0 0 0 18 0 0 36 0 0 12 0 0 24 0 0 24 0 0 36 0 0 42 0 0 42 0 0 73 0 0 97 0 0 97 0 0 103 0 0 115 0 0 60 0 0 54 0 0 67 0 0 30 0 0 42 0 0 12 0 0 12 0 0 0 0 0 6 0 0 6 0 0 18 0 0 18 0 0 18 0 
0 12 0 0 36 0 0 24 0 0 42 0 0 36 0 0 60 0 0 24 0 0 48 0 0 121 0 0 73 0 0 67 0 0 54 0 0 73 0 0 54 0 0 42 0 0 42 0 0 54 0 0 54 0 0 48 0 0 30 0 0 48 0 0 0 0 0 6 0 0 0 0 0 6 0 0 0 0 0 0 0 0 24 0 0 30 0 0 54 0 0 85 0 0 30 0 0 48 0 0 12 0 0 6 0 0 6 0 0 6 0 0 18 0 0 30 0 0 48 0 0 42 0 0 60 0 0 67 0 0 109 0 0 121 0 0 164 0 0 170 0 0 79 0 0 54 0 0 48 0 0 30 0 0 18 0 0 12 0 0 0 0 0 6 0 0 12 0 0 18 0 0 12 0 0 18 0 0 12 0 0 30 0 0 109 0 
0 12 0 0 12 0 0 67 0 0 60 0 0 36 0 0 24 0 0 54 0 0 48 0 0 73 0 0 91 0 0 79 0 0 79 0 0 60 0 0 97 0 0 48 0 0 30 0 0 91 0 0 48 0 0 30 0 0 12 0 0 6 0 0 12 0 0 6 0 0 0 0 0 0 0 0 0 0 0 0 0 0 30 0 0 91 0 0 79 0 0 54 0 0 48 0 0 12 0 0 30 0 0 6 0 0 18 0 0 24 0 0 24 0 0 48 0 0 24 0 0 73 0 0 73 0 0 134 0 0 188 0 0 128 0 0 109 0 0 97 0 0 60 0 0 30 0 0 12 0 0 12 0 0 12 0 0 0 0 0 0 0 0 0 0 0 12 0 0 12 0 0 48 0 0 54 0 0 115 0 0 146 0 0 97 0 
0 12 0 0 18 0 0 12 0 0 30 0 0 12 0 0 30 0 0 54 0 0 73 0 0 79 0 0 60 0 0 79 0 0 109 0 0 60 0 0 54 0 0 73 0 0 36 0 0 79 0 0 36 0 0 30 0 0 12 0 0 12 0 0 0 0 0 12 0 0 0 0 0 0 0 0 24 0 0 30 0 0 60 0 0 73 0 0 42 0 0 30 0 0 18 0 0 18 0 0 30 0 0 24 0 0 54 0 0 36 0 0 36 0 0 42 0 0 67 0 0 97 0 0 182 0 0 134 0 0 115 0 0 67 0 0 54 0 0 36 0 0 24 0 0 12 0 0 36 0 0 6 0 0 6 0 0 0 0 0 48 0 0 30 0 0 24 0 0 103 0 0 128 0 0 158 0 0 109 0 0 60 0 0 60 0 
0 12 0 0 30 0 0 24 0 0 60 0 0 24 0 0 48 0 0 36 0 0 73 0 0 91 0 0 73 0 0 67 0 0 97 0 0 48 0 0 48 0 0 54 0 0 48 0 0 79 0 0 54 0 0 0 0 0 18 0 0 6 0 0 6 0 0 0 0 0 0 0 0 12 0 0 30 0 0 91 0 0 73 0 0 60 0 0 30 0 0 0 0 0 18 0 0 36 0 0 12 0 0 24 0 0 18 0 0 42 0 0 91 0 0 85 0 0 134 0 0 121 0 0 103 0 0 60 0 0 79 0 0 36 0 0 12 0 0 12 0 0 12 0 0 0 0 0 12 0 0 18 0 0 12 0 0 12 0 0 48 0 0 103 0 0 128 0 0 115 0 0 121 0 0 97 0 0 48 0 0 42 0 0 12 0 
0 12 0 0 6 0 0 42 0 0 30 0 0 18 0 0 30 0 0 54 0 0 103 0 0 67 0 0 79 0 0 54 0 0 42 0 0 73 0 0 54 0 0 67 0 0 67 0 0 42 0 0 30 0 0 0 0 0 0 0 0 6 0 0 0 0 0 0 0 0 0 0 0 30 0 0 54 0 0 79 0 0 42 0 0 30 0 0 30 0 0 12 0 0 30 0 0 18 0 0 48 0 0 60 0 0 54 0 0 73 0 0 109 0 0 146 0 0 115 0 0 97 0 0 79 0 0 48 0 0 18 0 0 6 0 0 12 0 0 6 0 0 24 0 0 6 0 0 6 0 0 18 0 0 48 0 0 54 0 0 134 0 0 158 0 0 146 0 0 97 0 0 54 0 0 18 0 0 6 0 0 18 0 0 6 0 
0 12 0 0 12 0 0 30 0 0 42 0 0 48 0 0 24 0 0 67 0 0 91 0 0 103 0 0 79 0 0 73 0 0 48 0 0 79 0 0 30 0 0 48 0 0 48 0 0 36 0 0 6 0 0 12 0 0 0 0 0 6 0 0 6 0 0 0 0 0 24 0 0 91 0 0 85 0 0 54 0 0 30 0 0 0 0 0 12 0 0 6 0 0 30 0 0 24 0 0 42 0 0 30 0 0 67 0 0 97 0 0 115 0 0 146 0 0 109 0 0 54 0 0 36 0 0 12 0 0 12 0 0 12 0 0 6 0 0 12 0 0 6 0 0 18 0 0 91 0 0 30 0 0 97 0 0 146 0 0 103 0 0 60 0 0 54 0 0 42 0 0 24 0 0 18 0 0 12 0 0 18 0 0 0 0 
0 12 0 0 18 0 0 12 0 0 48 0 0 36 0 0 42 0 0 36 0 0 134 0 0 140 0 0 85 0 0 91 0 0 67 0 0 24 0 0 42 0 0 42 0 0 42 0 0 24 0 0 6 0 0 6 0 0 6 0 0 0 0 0 0 0 0 18 0 0 54 0 0 60 0 0 30 0 0 48 0 0 18 0 0 18 0 0 30 0 0 30 0 0 42 0 0 54 0 0 60 0 0 67 0 0 121 0 0 158 0 0 188 0 0 134 0 0 60 0 0 24 0 0 18 0 0 12 0 0 6 0 0 0 0 0 0 0 0 30 0 0 18 0 0 24 0 0 85 0 0 146 0 0 85 0 0 97 0 0 48 0 0 48 0 0 30 0 0 12 0 0 36 0 0 0 0 0 36 0 0 6 0 0 30 0 
0 12 0 0 24 0 0 36 0 0 48 0 0 48 0 0 42 0 0 67 0 0 91 0 0 67 0 0 79 0 0 85 0 0 54 0 0 54 0 0 91 0 0 79 0 0 36 0 0 18 0 0 6 0 0 0 0 0 0 0 0 0 0 0 12 0 0 67 0 0 48 0 0 54 0 0 48 0 0 12 0 0 18 0 0 36 0 0 18 0 0 24 0 0 54 0 0 42 0 0 73 0 0 201 0 0 121 0 0 115 0 0 73 0 0 79 0 0 30 0 0 0 0 0 18 0 0 0 0 0 6 0 0 6 0 0 18 0 0 18 0 0 85 0 0 91 0 0 115 0 0 128 0 0 121 0 0 36 0 0 24 0 0 0 0 0 12 0 0 6 0 0 18 0 0 30 0 0 0 0 0 36 0 0 18 0 
0 12 0 0 0 0 0 54 0 0 30 0 0 48 0 0 73 0 0 103 0 0 73 0 0 97 0 0 109 0 0 48 0 0 67 0 0 48 0 0 42 0 0 36 0 0 6 0 0 6 0 0 0 0 0 12 0 0 0 0 0 0 0 0 36 0 0 48 0 0 60 0 0 54 0 0 12 0 0 30 0 0 30 0 0 12 0 0 48 0 0 42 0 0 60 0 0 73 0 0 54 0 0 158 0 0 152 0 0 67 0 0 54 0 0 12 0 0 12 0 0 12 0 0 12 0 0 36 0 0 6 0 0 36 0 0 24 0 0 128 0 0 134 0 0 115 0 0 60 0 0 54 0 0 30 0 0 24 0 0 18 0 0 18 0 0 12 0 0 24 0 0 30 0 0 24 0 0 42 0 0 54 0 0 85 0 
0 12 0 0 30 0 0 30 0 0 42 0 0 36 0 0 73 0 0 60 0 0 85 0 0 73 0 0 85 0 0 60 0 0 79 0 0 54 0 0 48 0 0 54 0 0 6 0 0 6 0 0 6 0 0 0 0 0 0 0 0 0 0 0 54 0 0 91 0 0 48 0 0 18 0 0 6 0 0 6 0 0 24 0 0 24 0 0 60 0 0 30 0 0 67 0 0 201 0 0 158 0 0 140 0 0 97 0 0 67 0 0 12 0 0 24 0 0 12 0 0 6 0 0 6 0 0 12 0 0 30 0 0 48 0 0 97 0 0 170 0 0 115 0 0 121 0 0 42 0 0 12 0 0 0 0 0 12 0 0 12 0 0 6 0 0 0 0 0 36 0 0 36 0 0 54 0 0 73 0 0 152 0 0 152 0 
0 12 0 0 24 0 0 60 0 0 36 0 0 48 0 0 48 0 0 91 0 0 60 0 0 67 0 0 48 0 0 42 0 0 109 0 0 48 0 0 60 0 0 24 0 0 0 0 0 6 0 0 6 0 0 6 0 0 12 0 0 30 0 0 60 0 0 91 0 0 42 0 0 0 0 0 6 0 0 18 0 0 54 0 0 18 0 0 54 0 0 67 0 0 121 0 0 121 0 0 152 0 0 97 0 0 48 0 0 12 0 0 6 0 0 6 0 0 12 0 0 18 0 0 18 0 0 91 0 0 73 0 0 128 0 0 115 0 0 54 0 0 85 0 0 42 0 0 6 0 0 12 0 0 6 0 0 24 0 0 12 0 0 24 0 0 36 0 0 42 0 0 79 0 0 121 0 0 201 0 0 176 0 0 164 0 
0 12 0 0 30 0 0 48 0 0 12 0 0 30 0 0 67 0 0 79 0 0 73 0 0 79 0 0 60 0 0 79 0 0 48 0 0 79 0 0 30 0 0 0 0 0 12 0 0 0 0 0 0 0 0 0 0 0 36 0 0 91 0 0 73 0 0 54 0 0 18 0 0 18 0 0 6 0 0 24 0 0 36 0 0 42 0 0 73 0 0 97 0 0 158 0 0 115 0 0 67 0 0 67 0 0 12 0 0 12 0 0 6 0 0 6 0 0 0 0 0 18 0 0 54 0 0 103 0 0 152 0 0 115 0 0 60 0 0 54 0 0 24 0 0 0 0 0 6 0 0 18 0 0 6 0 0 30 0 0 18 0 0 18 0 0 54 0 0 85 0 0 91 0 0 134 0 0 140 0 0 109 0 0 42 0 
0 12 0 0 12 0 0 73 0 0 54 0 0 79 0 0 73 0 0 97 0 0 42 0 0 54 0 0 54 0 0 54 0 0 42 0 0 42 0 0 85 0 0 18 0 0 0 0 0 0 0 0 6 0 0 0 0 0 42 0 0 36 0 0 48 0 0 30 0 0 18 0 0 36 0 0 18 0 0 24 0 0 36 0 0 91 0 0 109 0 0 115 0 0 188 0 0 73 0 0 54 0 0 12 0 0 6 0 0 6 0 0 0 0 0 18 0 0 0 0 0 36 0 0 79 0 0 140 0 0 140 0 0 91 0 0 30 0 0 30 0 0 18 0 0 18 0 0 18 0 0 30 0 0 6 0 0 36 0 0 42 0 0 121 0 0 121 0 0 109 0 0 128 0 0 158 0 0 79 0 0 30 0 0 24 0 
0 12 0 0 12 0 0 36 0 0 36 0 0 60 0 0 48 0 0 73 0 0 109 0 0 121 0 0 73 0 0 42 0 0 60 0 0 30 0 0 12 0 0 18 0 0 0 0 0 0 0 0 0 0 0 36 0 0 73 0 0 48 0 0 42 0 0 0 0 0 6 0 0 12 0 0 30 0 0 48 0 0 42 0 0 85 0 0 146 0 0 146 0 0 134 0 0 79 0 0 12 0 0 24 0 0 6 0 0 6 0 0 18 0 0 36 0 0 48 0 0 54 0 0 128 0 0 121 0 0 36 0 0 36 0 0 24 0 0 6 0 0 12 0 0 18 0 0 0 0 0 18 0 0 36 0 0 12 0 0 164 0 0 91 0 0 109 0 0 170 0 0 109 0 0 42 0 0 24 0 0 6 0 0 0 0 
0 12 0 0 24 0 0 60 0 0 30 0 0 54 0 0 91 0 0 91 0 0 121 0 0 60 0 0 54 0 0 30 0 0 42 0 0 30 0 0 12 0 0 12 0 0 0 0 0 0 0 0 0 0 0 30 0 0 73 0 0 54 0 0 18 0 0 30 0 0 18 0 0 24 0 0 48 0 0 24 0 0 67 0 0 134 0 0 115 0 0 109 0 0 60 0 0 30 0 0 12 0 0 12 0 0 12 0 0 0 0 0 0 0 0 48 0 0 91 0 0 146 0 0 134 0 0 73 0 0 24 0 0 24 0 0 12 0 0 18 0 0 6 0 0 30 0 0 18 0 0 48 0 0 48 0 0 146 0 0 128 0 0 164 0 0 128 0 0 109 0 0 12 0 0 18 0 0 0 0 0 0 0 0 0 0 
0 12 0 0 18 0 0 36 0 0 48 0 0 42 0 0 121 0 0 103 0 0 67 0 0 85 0 0 79 0 0 54 0 0 54 0 0 36 0 0 6 0 0 6 0 0 6 0 0 0 0 0 0 0 0 91 0 0 48 0 0 48 0 0 0 0 0 36 0 0 42 0 0 24 0 0 42 0 0 73 0 0 97 0 0 121 0 0 97 0 0 54 0 0 24 0 0 0 0 0 12 0 0 6 0 0 18 0 0 18 0 0 36 0 0 54 0 0 146 0 0 128 0 0 73 0 0 42 0 0 18 0 0 12 0 0 18 0 0 12 0 0 24 0 0 36 0 0 42 0 0 121 0 0 152 0 0 213 0 0 176 0 0 109 0 0 30 0 0 24 0 0 6 0 0 6 0 0 0 0 0 0 0 0 0 0 
0 12 0 0 30 0 0 24 0 0 42 0 0 30 0 0 91 0 0 103 0 0 91 0 0 67 0 0 48 0 0 48 0 0 54 0 0 18 0 0 18 0 0 0 0 0 0 0 0 0 0 0 18 0 0 42 0 0 42 0 0 24 0 0 24 0 0 12 0 0 30 0 0 36 0 0 60 0 0 73 0 0 182 0 0 103 0 0 79 0 0 36 0 0 18 0 0 18 0 0 12 0 0 6 0 0 18 0 0 54 0 0 79 0 0 128 0 0 134 0 0 73 0 0 24 0 0 12 0 0 0 0 0 36 0 0 6 0 0 24 0 0 18 0 0 60 0 0 91 0 0 121 0 0 128 0 0 146 0 0 97 0 0 48 0 0 18 0 0 12 0 0 6 0 0 12 0 0 6 0 0 18 0 0 18 0 
0 12 0 0 48 0 0 60 0 0 54 0 0 36 0 0 91 0 0 73 0 0 91 0 0 48 0 0 73 0 0 48 0 0 36 0 0 0 0 0 12 0 0 6 0 0 6 0 0 12 0 0 54 0 0 73 0 0 42 0 0 0 0 0 18 0 0 12 0 0 30 0 0 42 0 0 67 0 0 134 0 0 134 0 0 60 0 0 48 0 0 12 0 0 12 0 0 0 0 0 36 0 0 12 0 0 91 0 0 103 0 0 140 0 0 121 0 0 73 0 0 42 0 0 12 0 0 6 0 0 12 0 0 24 0 0 24 0 0 24 0 0 60 0 0 85 0 0 152 0 0 176 0 0 152 0 0 109 0 0 54 0 0 6 0 0 0 0 0 6 0 0 0 0 0 6 0 0 12 0 0 24 0 0 36 0 
0 12 0 0 18 0 0 36 0 0 36 0 0 36 0 0 109 0 0 109 0 0 42 0 0 18 0 0 60 0 0 36 0 0 30 0 0 18 0 0 0 0 0 0 0 0 0 0 0 30 0 0 42 0 0 91 0 0 30 0 0 0 0 0 30 0 0 18 0 0 48 0 0 42 0 0 109 0 0 188 0 0 115 0 0 79 0 0 18 0 0 12 0 0 6 0 0 6 0 0 6 0 0 30 0 0 73 0 0 152 0 0 140 0 0 36 0 0 24 0 0 18 0 0 0 0 0 12 0 0 12 0 0 6 0 0 60 0 0 54 0 0 152 0 0 115 0 0 201 0 0 103 0 0 60 0 0 36 0 0 6 0 0 0 0 0 6 0 0 0 0 0 12 0 0 12 0 0 18 0 0 42 0 0 115 0 
0 12 0 0 18 0 0 42 0 0 48 0 0 48 0 0 79 0 0 97 0 0 97 0 0 54 0 0 48 0 0 54 0 0 18 0 0 6 0 0 6 0 0 0 0 0 0 0 0 67 0 0 91 0 0 54 0 0 0 0 0 36 0 0 12 0 0 24 0 0 60 0 0 73 0 0 121 0 0 128 0 0 67 0 0 36 0 0 6 0 0 12 0 0 0 0 0 6 0 0 36 0 0 48 0 0 128 0 0 115 0 0 91 0 0 36 0 0 24 0 0 12 0 0 36 0 0 24 0 0 6 0 0 18 0 0 54 0 0 152 0 0 170 0 0 109 0 0 109 0 0 30 0 0 0 0 0 6 0 0 6 0 0 0 0 0 6 0 0 0 0 0 18 0 0 36 0 0 115 0 0 134 0 0 109 0 
0 12 0 0 18 0 0 42 0 0 30 0 0 67 0 0 73 0 0 79 0 0 48 0 0 79 0 0 36 0 0 48 0 0 6 0 0 12 0 0 0 0 0 6 0 0 24 0 0 91 0 0 48 0 0 30 0 0 6 0 0 6 0 0 54 0 0 42 0 0 42 0 0 97 0 0 164 0 0 109 0 0 54 0 0 12 0 0 12 0 0 6 0 0 0 0 0 18 0 0 24 0 0 97 0 0 115 0 0 60 0 0 30 0 0 24 0 0 12 0 0 18 0 0 6 0 0 24 0 0 60 0 0 54 0 0 115 0 0 121 0 0 140 0 0 109 0 0 30 0 0 30 0 0 0 0 0 0 0 0 0 0 0 0 0 0 6 0 0 24 0 0 42 0 0 109 0 0 121 0 0 121 0 0 121 0 
0 12 0 0 6 0 0 36 0 0 36 0 0 54 0 0 85 0 0 67 0 0 73 0 0 36 0 0 67 0 0 67 0 0 6 0 0 6 0 0 0 0 0 0 0 0 24 0 0 48 0 0 48 0 0 18 0 0 6 0 0 42 0 0 30 0 0 60 0 0 54 0 0 97 0 0 170 0 0 97 0 0 36 0 0 12 0 0 6 0 0 12 0 0 30 0 0 18 0 0 128 0 0 170 0 0 54 0 0 54 0 0 30 0 0 6 0 0 18 0 0 12 0 0 24 0 0 24 0 0 54 0 0 152 0 0 121 0 0 152 0 0 146 0 0 48 0 0 6 0 0 0 0 0 12 0 0 6 0 0 6 0 0 24 0 0 18 0 0 60 0 0 115 0 0 158 0 0 97 0 0 79 0 0 60 0 
0 12 0 0 30 0 0 18 0 0 48 0 0 67 0 0 103 0 0 103 0 0 109 0 0 67 0 0 24 0 0 73 0 0 6 0 0 6 0 0 6 0 0 6 0 0 36 0 0 36 0 0 24 0 0 24 0 0 24 0 0 73 0 0 60 0 0 60 0 0 85 0 0 103 0 0 79 0 0 60 0 0 24 0 0 12 0 0 24 0 0 6 0 0 18 0 0 85 0 0 134 0 0 115 0 0 85 0 0 24 0 0 18 0 0 12 0 0 6 0 0 24 0 0 18 0 0 60 0 0 152 0 0 170 0 0 140 0 0 146 0 0 42 0 0 24 0 0 12 0 0 0 0 0 0 0 0 6 0 0 0 0 0 18 0 0 60 0 0 103 0 0 97 0 0 128 0 0 85 0 0 60 0 0 30 0 
0 12 0 0 42 0 0 48 0 0 30 0 0 67 0 0 103 0 0 79 0 0 48 0 0 54 0 0 79 0 0 36 0 0 6 0 0 0 0 0 0 0 0 12 0 0 91 0 0 54 0 0 18 0 0 18 0 0 12 0 0 24 0 0 42 0 0 73 0 0 97 0 0 115 0 0 54 0 0 30 0 0 12 0 0 0 0 0 6 0 0 18 0 0 24 0 0 91 0 0 115 0 0 121 0 0 42 0 0 0 0 0 18 0 0 18 0 0 30 0 0 36 0 0 60 0 0 85 0 0 115 0 0 109 0 0 109 0 0 48 0 0 24 0 0 0 0 0 6 0 0 0 0 0 6 0 0 6 0 0 48 0 0 67 0 0 134 0 0 128 0 0 140 0 0 60 0 0 54 0 0 30 0 0 12 0 
0 12 0 0 42 0 0 18 0 0 60 0 0 73 0 0 60 0 0 91 0 0 36 0 0 54 0 0 42 0 0 24 0 0 24 0 0 6 0 0 6 0 0 36 0 0 60 0 0 60 0 0 12 0 0 18 0 0 48 0 0 18 0 0 73 0 0 85 0 0 188 0 0 60 0 0 48 0 0 12 0 0 36 0 0 12 0 0 6 0 0 91 0 0 85 0 0 115 0 0 60 0 0 42 0 0 6 0 0 6 0 0 18 0 0 0 0 0 18 0 0 42 0 0 91 0 0 152 0 0 201 0 0 109 0 0 30 0 0 6 0 0 12 0 0 6 0 0 0 0 0 0 0 0 24 0 0 24 0 0 60 0 0 146 0 0 140 0 0 97 0 0 79 0 0 60 0 0 24 0 0 18 0 0 0 0 
0 12 0 0 24 0 0 36 0 0 24 0 0 121 0 0 67 0 0 73 0 0 42 0 0 54 0 0 48 0 0 48 0 0 6 0 0 6 0 0 0 0 0 30 0 0 85 0 0 48 0 0 6 0 0 6 0 0 30 0 0 42 0 0 67 0 0 121 0 0 170 0 0 54 0 0 30 0 0 12 0 0 6 0 0 18 0 0 18 0 0 30 0 0 146 0 0 128 0 0 54 0 0 12 0 0 12 0 0 18 0 0 30 0 0 18 0 0 48 0 0 121 0 0 121 0 0 176 0 0 103 0 0 30 0 0 30 0 0 0 0 0 0 0 0 0 0 0 0 0 0 24 0 0 36 0 0 91 0 0 121 0 0 121 0 0 85 0 0 54 0 0 42 0 0 18 0 0 12 0 0 18 0 0 6 0 
0 12 0 0 36 0 0 42 0 0 54 0 0 60 0 0 109 0 0 85 0 0 30 0 0 54 0 0 36 0 0 6 0 0 0 0 0 0 0 0 0 0 0 54 0 0 48 0 0 18 0 0 30 0 0 24 0 0 54 0 0 30 0 0 164 0 0 158 0 0 121 0 0 67 0 0 18 0 0 12 0 0 6 0 0 12 0 0 48 0 0 97 0 0 85 0 0 121 0 0 30 0 0 0 0 0 6 0 0 6 0 0 6 0 0 36 0 0 48 0 0 152 0 0 128 0 0 152 0 0 60 0 0 0 0 0 0 0 0 12 0 0 0 0 0 6 0 0 24 0 0 36 0 0 91 0 0 152 0 0 103 0 0 97 0 0 36 0 0 54 0 0 12 0 0 6 0 0 24 0 0 12 0 0 30 0 
0 12 0 0 67 0 0 36 0 0 54 0 0 73 0 0 79 0 0 60 0 0 48 0 0 91 0 0 30 0 0 6 0 0 6 0 0 0 0 0 0 0 0 91 0 0 54 0 0 12 0 0 6 0 0 24 0 0 48 0 0 73 0 0 134 0 0 128 0 0 97 0 0 30 0 0 12 0 0 0 0 0 0 0 0 12 0 0 54 0 0 146 0 0 97 0 0 36 0 0 24 0 0 12 0 0 24 0 0 30 0 0 36 0 0 12 0 0 146 0 0 213 0 0 146 0 0 109 0 0 36 0 0 6 0 0 0 0 0 6 0 0 6 0 0 6 0 0 24 0 0 91 0 0 152 0 0 188 0 0 128 0 0 79 0 0 24 0 0 12 0 0 12 0 0 12 0 0 6 0 0 6 0 0 12 0 
0 12 0 0 24 0 0 60 0 0 67 0 0 103 0 0 48 0 0 79 0 0 24 0 0 54 0 0 42 0 0 18 0 0 0 0 0 12 0 0 30 0 0 85 0 0 12 0 0 24 0 0 18 0 0 0 0 0 42 0 0 115 0 0 152 0 0 109 0 0 48 0 0 42 0 0 0 0 0 0 0 0 48 0 0 48 0 0 134 0 0 103 0 0 48 0 0 24 0 0 18 0 0 12 0 0 12 0 0 18 0 0 42 0 0 164 0 0 128 0 0 176 0 0 97 0 0 54 0 0 6 0 0 6 0 0 0 0 0 6 0 0 0 0 0 48 0 0 60 0 0 121 0 0 103 0 0 128 0 0 91 0 0 30 0 0 18 0 0 24 0 0 6 0 0 18 0 0 42 0 0 24 0 0 67 0 
0 12 0 0 12 0 0 12 0 0 54 0 0 79 0 0 79 0 0 60 0 0 73 0 0 79 0 0 30 0 0 12 0 0 12 0 0 0 0 0 30 0 0 73 0 0 30 0 0 18 0 0 24 0 0 36 0 0 42 0 0 97 0 0 134 0 0 67 0 0 36 0 0 12 0 0 6 0 0 0 0 0 30 0 0 103 0 0 158 0 0 60 0 0 48 0 0 0 0 0 18 0 0 6 0 0 24 0 0 18 0 0 121 0 0 91 0 0 164 0 0 109 0 0 48 0 0 6 0 0 0 0 0 0 0 0 0 0 0 24 0 0 18 0 0 67 0 0 146 0 0 121 0 0 97 0 0 79 0 0 30 0 0 12 0 0 12 0 0 18 0 0 6 0 0 24 0 0 6 0 0 36 0 0 121 0 
0 12 0 0 12 0 0 73 0 0 73 0 0 79 0 0 54 0 0 48 0 0 109 0 0 54 0 0 6 0 0 6 0 0 0 0 0 0 0 0 30 0 0 91 0 0 12 0 0 36 0 0 36 0 0 42 0 0 60 0 0 121 0 0 152 0 0 73 0 0 42 0 0 12 0 0 12 0 0 12 0 0 24 0 0 128 0 0 146 0 0 54 0 0 30 0 0 12 0 0 12 0 0 0 0 0 36 0 0 54 0 0 121 0 0 109 0 0 128 0 0 30 0 0 18 0 0 0 0 0 6 0 0 6 0 0 6 0 0 18 0 0 60 0 0 134 0 0 140 0 0 85 0 0 36 0 0 24 0 0 18 0 0 12 0 0 24 0 0 12 0 0 24 0 0 36 0 0 42 0 0 79 0 0 60 0 
0 12 0 0 24 0 0 24 0 0 36 0 0 91 0 0 67 0 0 48 0 0 54 0 0 79 0 0 0 0 0 6 0 0 0 0 0 12 0 0 91 0 0 60 0 0 0 0 0 36 0 0 24 0 0 42 0 0 85 0 0 121 0 0 60 0 0 36 0 0 12 0 0 0 0 0 18 0 0 12 0 0 103 0 0 115 0 0 97 0 0 42 0 0 12 0 0 6 0 0 24 0 0 36 0 0 42 0 0 85 0 0 109 0 0 170 0 0 109 0 0 24 0 0 12 0 0 6 0 0 0 0 0 0 0 0 24 0 0 60 0 0 103 0 0 128 0 0 97 0 0 54 0 0 54 0 0 12 0 0 24 0 0 18 0 0 12 0 0 12 0 0 48 0 0 67 0 0 48 0 0 134 0 0 97 0 
0 12 0 0 6 0 0 36 0 0 67 0 0 73 0 0 48 0 0 73 0 0 48 0 0 30 0 0 12 0 0 0 0 0 0 0 0 36 0 0 73 0 0 42 0 0 6 0 0 12 0 0 54 0 0 42 0 0 79 0 0 146 0 0 79 0 0 12 0 0 6 0 0 6 0 0 12 0 0 48 0 0 128 0 0 121 0 0 54 0 0 24 0 0 36 0 0 18 0 0 30 0 0 36 0 0 79 0 0 91 0 0 128 0 0 109 0 0 12 0 0 6 0 0 6 0 0 0 0 0 12 0 0 18 0 0 42 0 0 115 0 0 97 0 0 140 0 0 79 0 0 42 0 0 12 0 0 12 0 0 6 0 0 6 0 0 24 0 0 48 0 0 60 0 0 91 0 0 91 0 0 103 0 0 48 0 
0 12 0 0 42 0 0 18 0 0 54 0 0 67 0 0 54 0 0 73 0 0 67 0 0 42 0 0 0 0 0 6 0 0 0 0 0 30 0 0 79 0 0 30 0 0 12 0 0 18 0 0 60 0 0 73 0 0 146 0 0 97 0 0 48 0 0 6 0 0 6 0 0 6 0 0 18 0 0 54 0 0 158 0 0 97 0 0 18 0 0 18 0 0 0 0 0 30 0 0 24 0 0 54 0 0 121 0 0 134 0 0 158 0 0 42 0 0 18 0 0 6 0 0 12 0 0 6 0 0 12 0 0 36 0 0 109 0 0 158 0 0 128 0 0 60 0 0 60 0 0 18 0 0 6 0 0 12 0 0 18 0 0 24 0 0 36 0 0 67 0 0 91 0 0 109 0 0 85 0 0 48 0 0 42 0 
0 12 0 0 12 0 0 18 0 0 67 0 0 67 0 0 48 0 0 67 0 0 48 0 0 36 0 0 6 0 0 0 0 0 0 0 0 48 0 0 48 0 0 30 0 0 6 0 0 12 0 0 48 0 0 54 0 0 152 0 0 73 0 0 24 0 0 24 0 0 0 0 0 18 0 0 12 0 0 115 0 0 109 0 0 48 0 0 6 0 0 12 0 0 36 0 0 0 0 0 42 0 0 73 0 0 201 0 0 140 0 0 79 0 0 24 0 0 0 0 0 0 0 0 6 0 0 12 0 0 18 0 0 115 0 0 121 0 0 97 0 0 85 0 0 54 0 0 24 0 0 12 0 0 24 0 0 6 0 0 42 0 0 6 0 0 42 0 0 48 0 0 91 0 0 85 0 0 54 0 0 12 0 0 6 0 
0 12 0 0 30 0 0 48 0 0 67 0 0 103 0 0 73 0 0 79 0 0 48 0 0 36 0 0 12 0 0 6 0 0 0 0 0 91 0 0 54 0 0 0 0 0 6 0 0 24 0 0 30 0 0 97 0 0 146 0 0 54 0 0 12 0 0 12 0 0 12 0 0 18 0 0 30 0 0 146 0 0 60 0 0 42 0 0 18 0 0 18 0 0 6 0 0 36 0 0 54 0 0 152 0 0 176 0 0 109 0 0 30 0 0 6 0 0 0 0 0 0 0 0 18 0 0 24 0 0 42 0 0 134 0 0 121 0 0 79 0 0 60 0 0 30 0 0 18 0 0 18 0 0 12 0 0 6 0 0 24 0 0 36 0 0 79 0 0 134 0 0 103 0 0 48 0 0 12 0 0 18 0 0 0 0 
0 12 0 0 60 0 0 48 0 0 48 0 0 109 0 0 85 0 0 48 0 0 60 0 0 30 0 0 6 0 0 12 0 0 6 0 0 103 0 0 42 0 0 12 0 0 18 0 0 12 0 0 67 0 0 152 0 0 146 0 0 67 0 0 18 0 0 0 0 0 6 0 0 18 0 0 109 0 0 97 0 0 60 0 0 12 0 0 6 0 0 0 0 0 30 0 0 18 0 0 85 0 0 152 0 0 164 0 0 42 0 0 24 0 0 0 0 0 0 0 0 0 0 0 18 0 0 36 0 0 115 0 0 109 0 0 121 0 0 60 0 0 30 0 0 12 0 0 0 0 0 6 0 0 30 0 0 12 0 0 67 0 0 121 0 0 60 0 0 97 0 0 48 0 0 42 0 0 6 0 0 0 0 0 0 0 
