P3
64 64
255
0 71 0 0 71 0 0 71 0 0 71 0 0 71 0 0 71 0 0 71 0 0 71 0 0 71 0 0 71 0 0 71 0 0 71 0 0 71 0 0 71 0 0 71 0 0 71 0 0 71 0 0 71 0 0 71 0 0 71 0 0 71 0 0 71 0 0 71 0 0 71 0 0 71 0 0 71 0 0 71 0 0 71 0 0 71 0 0 71 0 0 71 0 0 71 0 0 71 0 0 71 0 0 71 0 0 71 0 0 71 0 0 71 0 0 71 0 0 71 0 0 71 0 0 71 0 0 71 0 0 71 0 0 71 0 0 71 0 0 71 0 0 71 0 0 71 0 0 71 0 0 71 0 0 71 0 0 71 0 0 71 0 0 71 0 0 71 0 0 71 0 0 71 0 0 71 0 0 71 0 0 71 0 0 71 0 0 71 0 0 71 0 
0 71 0 0 78 0 0 64 0 0 113 0 0 49 0 0 78 0 0 99 0 0 49 0 0 99 0 0 71 0 0 78 0 0 49 0 0 106 0 0 56 0 0 128 0 0 92 0 0 49 0 0 56 0 0 92 0 0 92 0 0 78 0 0 120 0 0 92 0 0 56 0 0 78 0 0 49 0 0 106 0 0 99 0 0 85 0 0 113 0 0 99 0 0 106 0 0 64 0 0 56 0 0 78 0 0 92 0 0 99 0 0 71 0 0 49 0 0 78 0 0 142 0 0 99 0 0 99 0 0 49 0 0 64 0 0 113 0 0 85 0 0 85 0 0 85 0 0 49 0 0 99 0 0 99 0 0 120 0 0 92 0 0 99 0 0 56 0 0 106 0 0 106 0 0 106 0 0 85 0 0 64 0 0 71 0 0 56 0 0 49 0 
0 71 0 0 64 0 0 49 0 0 99 0 0 99 0 0 78 0 0 106 0 0 128 0 0 49 0 0 92 0 0 78 0 0 92 0 0 78 0 0 106 0 0 85 0 0 99 0 0 64 0 0 78 0 0 99 0 0 49 0 0 142 0 0 99 0 0 64 0 0 85 0 0 85 0 0 99 0 0 120 0 0 99 0 0 106 0 0 106 0 0 64 0 0 56 0 0 56 0 0 99 0 0 99 0 0 78 0 0 71 0 0 106 0 0 78 0 0 64 0 0 78 0 0 106 0 0 64 0 0 113 0 0 78 0 0 85 0 0 14 0 0 64 0 0 92 0 0 49 0 0 56 0 0 64 0 0 49 0 0 42 0 0 56 0 0 156 0 0 49 0 0 56 0 0 42 0 0 64 0 0 28 0 0 78 0 0 64 0 0 71 0 
0 71 0 0 113 0 0 99 0 0 71 0 0 106 0 0 92 0 0 92 0 0 120 0 0 78 0 0 99 0 0 99 0 0 56 0 0 99 0 0 78 0 0 99 0 0 113 0 0 85 0 0 99 0 0 99 0 0 106 0 0 64 0 0 49 0 0 99 0 0 92 0 0 71 0 0 64 0 0 64 0 0 71 0 0 64 0 0 49 0 0 85 0 0 35 0 0 92 0 0 56 0 0 64 0 0 35 0 0 56 0 0 56 0 0 56 0 0 49 0 0 28 0 0 49 0 0 71 0 0 71 0 0 56 0 0 64 0 0 35 0 0 35 0 0 49 0 0 56 0 0 35 0 0 42 0 0 42 0 0 21 0 0 42 0 0 49 0 0 42 0 0 21 0 0 21 0 0 35 0 0 49 0 0 42 0 0 35 0 0 21 0 
0 71 0 0 49 0 0 99 0 0 106 0 0 49 0 0 78 0 0 78 0 0 85 0 0 64 0 0 99 0 0 142 0 0 64 0 0 85 0 0 120 0 0 106 0 0 64 0 0 56 0 0 99 0 0 71 0 0 78 0 0 78 0 0 64 0 0 78 0 0 14 0 0 92 0 0 56 0 0 49 0 0 56 0 0 49 0 0 42 0 0 28 0 0 64 0 0 49 0 0 56 0 0 35 0 0 49 0 0 49 0 0 56 0 0 28 0 0 42 0 0 56 0 0 49 0 0 42 0 0 42 0 0 56 0 0 49 0 0 28 0 0 35 0 0 21 0 0 49 0 0 35 0 0 21 0 0 64 0 0 28 0 0 35 0 0 28 0 0 49 0 0 28 0 0 35 0 0 35 0 0 28 0 0 49 0 0 71 0 0 7 0 
0 71 0 0 78 0 0 78 0 0 92 0 0 78 0 0 49 0 0 99 0 0 92 0 0 142 0 0 113 0 0 99 0 0 56 0 0 64 0 0 92 0 0 78 0 0 64 0 0 78 0 0 85 0 0 85 0 0 35 0 0 56 0 0 35 0 0 156 0 0 85 0 0 28 0 0 64 0 0 56 0 0 64 0 0 49 0 0 85 0 0 35 0 0 35 0 0 56 0 0 49 0 0 35 0 0 49 0 0 49 0 0 42 0 0 35 0 0 35 0 0 35 0 0 42 0 0 28 0 0 42 0 0 28 0 0 71 0 0 35 0 0 56 0 0 28 0 0 42 0 0 35 0 0 21 0 0 14 0 0 14 0 0 7 0 0 7 0 0 14 0 0 0 0 0 21 0 0 7 0 0 14 0 0 14 0 0 7 0 0 0 0 
0 71 0 0 99 0 0 106 0 0 92 0 0 78 0 0 99 0 0 99 0 0 99 0 0 85 0 0 99 0 0 64 0 0 99 0 0 71 0 0 64 0 0 64 0 0 85 0 0 92 0 0 64 0 0 56 0 0 56 0 0 28 0 0 71 0 0 56 0 0 35 0 0 49 0 0 35 0 0 42 0 0 42 0 0 42 0 0 21 0 0 49 0 0 35 0 0 21 0 0 35 0 0 21 0 0 28 0 0 35 0 0 49 0 0 28 0 0 28 0 0 28 0 0 35 0 0 7 0 0 14 0 0 14 0 0 7 0 0 0 0 0 14 0 0 7 0 0 7 0 0 14 0 0 0 0 0 7 0 0 7 0 0 0 0 0 14 0 0 7 0 0 14 0 0 7 0 0 0 0 0 7 0 0 0 0 0 0 0 0 0 0 
0 71 0 0 49 0 0 128 0 0 120 0 0 85 0 0 92 0 0 99 0 0 49 0 0 106 0 0 49 0 0 78 0 0 120 0 0 64 0 0 35 0 0 49 0 0 35 0 0 49 0 0 28 0 0 71 0 0 99 0 0 49 0 0 56 0 0 42 0 0 42 0 0 42 0 0 49 0 0 14 0 0 21 0 0 49 0 0 56 0 0 28 0 0 56 0 0 49 0 0 71 0 0 21 0 0 42 0 0 7 0 0 7 0 0 14 0 0 7 0 0 14 0 0 28 0 0 7 0 0 14 0 0 14 0 0 0 0 0 14 0 0 0 0 0 7 0 0 0 0 0 0 0 0 7 0 0 7 0 0 0 0 0 0 0 0 7 0 0 14 0 0 0 0 0 35 0 0 0 0 0 14 0 0 28 0 0 35 0 0 28 0 
0 71 0 0 99 0 0 49 0 0 78 0 0 64 0 0 142 0 0 85 0 0 106 0 0 56 0 0 71 0 0 78 0 0 78 0 0 92 0 0 49 0 0 49 0 0 28 0 0 49 0 0 35 0 0 49 0 0 28 0 0 56 0 0 42 0 0 56 0 0 28 0 0 21 0 0 35 0 0 64 0 0 35 0 0 49 0 0 35 0 0 28 0 0 71 0 0 21 0 0 14 0 0 14 0 0 14 0 0 7 0 0 7 0 0 7 0 0 7 0 0 14 0 0 0 0 0 7 0 0 14 0 0 21 0 0 7 0 0 0 0 0 0 0 0 14 0 0 14 0 0 14 0 0 14 0 0 49 0 0 14 0 0 49 0 0 35 0 0 49 0 0 28 0 0 35 0 0 49 0 0 21 0 0 28 0 0 14 0 0 7 0 
0 71 0 0 71 0 0 92 0 0 99 0 0 99 0 0 113 0 0 99 0 0 49 0 0 71 0 0 71 0 0 85 0 0 56 0 0 56 0 0 49 0 0 71 0 0 64 0 0 49 0 0 42 0 0 42 0 0 21 0 0 49 0 0 21 0 0 35 0 0 49 0 0 35 0 0 71 0 0 28 0 0 35 0 0 7 0 0 21 0 0 7 0 0 7 0 0 7 0 0 14 0 0 0 0 0 0 0 0 0 0 0 0 0 0 14 0 0 14 0 0 7 0 0 7 0 0 0 0 0 0 0 0 7 0 0 7 0 0 35 0 0 0 0 0 49 0 0 28 0 0 28 0 0 21 0 0 42 0 0 28 0 0 28 0 0 7 0 0 7 0 0 0 0 0 7 0 0 21 0 0 14 0 0 7 0 0 14 0 0 21 0 
0 71 0 0 78 0 0 78 0 0 99 0 0 142 0 0 99 0 0 64 0 0 78 0 0 78 0 0 85 0 0 56 0 0 156 0 0 28 0 0 56 0 0 49 0 0 35 0 0 56 0 0 35 0 0 49 0 0 35 0 0 35 0 0 28 0 0 28 0 0 35 0 0 28 0 0 35 0 0 14 0 0 7 0 0 14 0 0 21 0 0 14 0 0 7 0 0 14 0 0 14 0 0 0 0 0 0 0 0 7 0 0 0 0 0 0 0 0 0 0 0 14 0 0 14 0 0 14 0 0 14 0 0 35 0 0 28 0 0 42 0 0 49 0 0 21 0 0 35 0 0 14 0 0 7 0 0 0 0 0 7 0 0 14 0 0 14 0 0 0 0 0 7 0 0 7 0 0 7 0 0 28 0 0 28 0 0 21 0 0 21 0 
0 71 0 0 49 0 0 92 0 0 56 0 0 64 0 0 56 0 0 99 0 0 120 0 0 78 0 0 56 0 0 156 0 0 78 0 0 56 0 0 64 0 0 42 0 0 49 0 0 56 0 0 42 0 0 35 0 0 78 0 0 28 0 0 71 0 0 21 0 0 28 0 0 14 0 0 7 0 0 14 0 0 14 0 0 14 0 0 0 0 0 14 0 0 0 0 0 21 0 0 0 0 0 7 0 0 7 0 0 7 0 0 7 0 0 14 0 0 14 0 0 35 0 0 28 0 0 28 0 0 42 0 0 14 0 0 7 0 0 28 0 0 14 0 0 0 0 0 28 0 0 14 0 0 14 0 0 7 0 0 28 0 0 14 0 0 35 0 0 14 0 0 35 0 0 35 0 0 14 0 0 7 0 0 21 0 0 64 0 0 106 0 
0 71 0 0 106 0 0 78 0 0 99 0 0 85 0 0 64 0 0 71 0 0 64 0 0 92 0 0 56 0 0 28 0 0 56 0 0 49 0 0 42 0 0 42 0 0 49 0 0 21 0 0 21 0 0 35 0 0 28 0 0 28 0 0 7 0 0 14 0 0 0 0 0 7 0 0 14 0 0 7 0 0 0 0 0 7 0 0 7 0 0 7 0 0 0 0 0 14 0 0 7 0 0 14 0 0 14 0 0 49 0 0 35 0 0 28 0 0 42 0 0 21 0 0 21 0 0 7 0 0 7 0 0 0 0 0 14 0 0 0 0 0 7 0 0 14 0 0 0 0 0 28 0 0 21 0 0 64 0 0 49 0 0 7 0 0 7 0 0 35 0 0 71 0 0 49 0 0 99 0 0 128 0 0 149 0 0 106 0 0 113 0 
0 71 0 0 56 0 0 106 0 0 78 0 0 120 0 0 92 0 0 64 0 0 35 0 0 49 0 0 49 0 0 56 0 0 64 0 0 42 0 0 28 0 0 14 0 0 35 0 0 64 0 0 49 0 0 28 0 0 21 0 0 14 0 0 7 0 0 14 0 0 7 0 0 7 0 0 7 0 0 7 0 0 14 0 0 7 0 0 14 0 0 0 0 0 7 0 0 49 0 0 14 0 0 21 0 0 35 0 0 42 0 0 42 0 0 14 0 0 7 0 0 0 0 0 14 0 0 35 0 0 14 0 0 7 0 0 35 0 0 7 0 0 7 0 0 64 0 0 42 0 0 21 0 0 21 0 0 21 0 0 92 0 0 35 0 0 78 0 0 120 0 0 128 0 0 106 0 0 113 0 0 106 0 0 85 0 0 71 0 0 120 0 
0 71 0 0 128 0 0 85 0 0 99 0 0 106 0 0 78 0 0 64 0 0 49 0 0 49 0 0 71 0 0 49 0 0 42 0 0 42 0 0 14 0 0 49 0 0 28 0 0 49 0 0 21 0 0 7 0 0 14 0 0 14 0 0 7 0 0 14 0 0 14 0 0 7 0 0 0 0 0 7 0 0 0 0 0 14 0 0 35 0 0 14 0 0 35 0 0 49 0 0 28 0 0 42 0 0 35 0 0 7 0 0 21 0 0 21 0 0 35 0 0 0 0 0 14 0 0 0 0 0 14 0 0 14 0 0 21 0 0 35 0 0 28 0 0 35 0 0 78 0 0 64 0 0 92 0 0 120 0 0 128 0 0 113 0 0 113 0 0 120 0 0 64 0 0 71 0 0 35 0 0 28 0 0 42 0 0 42 0 0 71 0 
0 71 0 0 92 0 0 99 0 0 113 0 0 64 0 0 64 0 0 85 0 0 35 0 0 28 0 0 64 0 0 35 0 0 49 0 0 49 0 0 35 0 0 28 0 0 71 0 0 28 0 0 21 0 0 7 0 0 0 0 0 14 0 0 0 0 0 14 0 0 0 0 0 7 0 0 7 0 0 0 0 0 7 0 0 14 0 0 28 0 0 28 0 0 42 0 0 21 0 0 7 0 0 7 0 0 14 0 0 14 0 0 0 0 0 7 0 0 35 0 0 28 0 0 35 0 0 21 0 0 21 0 0 7 0 0 64 0 0 78 0 0 85 0 0 128 0 0 128 0 0 142 0 0 78 0 0 106 0 0 78 0 0 71 0 0 56 0 0 28 0 0 64 0 0 28 0 0 42 0 0 42 0 0 28 0 0 21 0 0 42 0 
0 71 0 0 49 0 0 64 0 0 85 0 0 56 0 0 78 0 0 92 0 0 49 0 0 49 0 0 49 0 0 56 0 0 56 0 0 21 0 0 64 0 0 49 0 0 28 0 0 21 0 0 14 0 0 7 0 0 7 0 0 14 0 0 7 0 0 21 0 0 0 0 0 14 0 0 14 0 0 49 0 0 49 0 0 49 0 0 35 0 0 21 0 0 14 0 0 0 0 0 0 0 0 7 0 0 0 0 0 14 0 0 0 0 0 0 0 0 64 0 0 42 0 0 21 0 0 35 0 0 113 0 0 99 0 0 128 0 0 113 0 0 78 0 0 92 0 0 120 0 0 64 0 0 78 0 0 71 0 0 49 0 0 49 0 0 64 0 0 28 0 0 42 0 0 42 0 0 49 0 0 42 0 0 49 0 0 28 0 0 28 0 
0 71 0 0 56 0 0 78 0 0 99 0 0 99 0 0 85 0 0 64 0 0 28 0 0 35 0 0 42 0 0 35 0 0 42 0 0 21 0 0 49 0 0 21 0 0 21 0 0 14 0 0 14 0 0 0 0 0 7 0 0 0 0 0 7 0 0 7 0 0 0 0 0 14 0 0 28 0 0 21 0 0 21 0 0 42 0 0 14 0 0 7 0 0 7 0 0 7 0 0 14 0 0 42 0 0 21 0 0 21 0 0 14 0 0 28 0 0 21 0 0 35 0 0 56 0 0 92 0 0 120 0 0 142 0 0 78 0 0 106 0 0 71 0 0 78 0 0 64 0 0 92 0 0 49 0 0 64 0 0 64 0 0 35 0 0 71 0 0 49 0 0 56 0 0 42 0 0 28 0 0 64 0 0 42 0 0 42 0 0 113 0 
0 71 0 0 92 0 0 99 0 0 99 0 0 71 0 0 85 0 0 56 0 0 71 0 0 49 0 0 42 0 0 49 0 0 35 0 0 35 0 0 28 0 0 7 0 0 7 0 0 7 0 0 0 0 0 0 0 0 14 0 0 7 0 0 0 0 0 7 0 0 35 0 0 49 0 0 28 0 0 42 0 0 28 0 0 7 0 0 7 0 0 14 0 0 14 0 0 14 0 0 14 0 0 21 0 0 21 0 0 7 0 0 28 0 0 71 0 0 35 0 0 128 0 0 92 0 0 113 0 0 128 0 0 120 0 0 71 0 0 56 0 0 78 0 0 49 0 0 71 0 0 42 0 0 35 0 0 42 0 0 49 0 0 56 0 0 35 0 0 28 0 0 21 0 0 35 0 0 56 0 0 78 0 0 120 0 0 135 0 0 128 0 
0 71 0 0 92 0 0 49 0 0 106 0 0 78 0 0 35 0 0 56 0 0 99 0 0 28 0 0 21 0 0 35 0 0 78 0 0 28 0 0 21 0 0 14 0 0 0 0 0 7 0 0 7 0 0 14 0 0 14 0 0 0 0 0 0 0 0 14 0 0 14 0 0 28 0 0 42 0 0 14 0 0 0 0 0 21 0 0 14 0 0 7 0 0 35 0 0 0 0 0 35 0 0 28 0 0 49 0 0 71 0 0 85 0 0 113 0 0 128 0 0 120 0 0 78 0 0 64 0 0 35 0 0 92 0 0 64 0 0 21 0 0 28 0 0 42 0 0 56 0 0 71 0 0 56 0 0 35 0 0 49 0 0 21 0 0 42 0 0 78 0 0 64 0 0 106 0 0 163 0 0 78 0 0 92 0 0 92 0 0 56 0 
0 71 0 0 78 0 0 142 0 0 64 0 0 78 0 0 56 0 0 28 0 0 49 0 0 56 0 0 49 0 0 35 0 0 28 0 0 28 0 0 14 0 0 14 0 0 14 0 0 14 0 0 0 0 0 7 0 0 0 0 0 14 0 0 14 0 0 35 0 0 42 0 0 21 0 0 14 0 0 0 0 0 14 0 0 0 0 0 7 0 0 28 0 0 21 0 0 42 0 0 7 0 0 35 0 0 64 0 0 128 0 0 106 0 0 120 0 0 106 0 0 64 0 0 35 0 0 28 0 0 49 0 0 64 0 0 42 0 0 35 0 0 35 0 0 42 0 0 28 0 0 28 0 0 64 0 0 64 0 0 85 0 0 78 0 0 92 0 0 113 0 0 78 0 0 64 0 0 49 0 0 35 0 0 42 0 0 0 0 0 21 0 
0 71 0 0 120 0 0 99 0 0 49 0 0 64 0 0 35 0 0 71 0 0 56 0 0 42 0 0 21 0 0 28 0 0 71 0 0 7 0 0 7 0 0 7 0 0 0 0 0 7 0 0 7 0 0 0 0 0 0 0 0 14 0 0 28 0 0 28 0 0 21 0 0 7 0 0 14 0 0 35 0 0 21 0 0 0 0 0 21 0 0 21 0 0 42 0 0 35 0 0 106 0 0 92 0 0 128 0 0 113 0 0 99 0 0 64 0 0 120 0 0 28 0 0 28 0 0 71 0 0 7 0 0 35 0 0 42 0 0 14 0 0 28 0 0 28 0 0 42 0 0 42 0 0 113 0 0 128 0 0 163 0 0 128 0 0 170 0 0 35 0 0 56 0 0 42 0 0 7 0 0 21 0 0 0 0 0 0 0 0 0 0 
0 71 0 0 92 0 0 64 0 0 99 0 0 78 0 0 156 0 0 56 0 0 42 0 0 56 0 0 35 0 0 28 0 0 21 0 0 14 0 0 14 0 0 14 0 0 14 0 0 21 0 0 7 0 0 7 0 0 14 0 0 35 0 0 28 0 0 14 0 0 28 0 0 0 0 0 14 0 0 7 0 0 14 0 0 14 0 0 35 0 0 7 0 0 64 0 0 99 0 0 113 0 0 142 0 0 113 0 0 120 0 0 92 0 0 92 0 0 56 0 0 64 0 0 64 0 0 35 0 0 64 0 0 35 0 0 35 0 0 21 0 0 35 0 0 49 0 0 78 0 0 92 0 0 156 0 0 113 0 0 99 0 0 28 0 0 35 0 0 14 0 0 0 0 0 0 0 0 7 0 0 7 0 0 0 0 0 7 0 0 7 0 
0 71 0 0 56 0 0 85 0 0 92 0 0 14 0 0 85 0 0 35 0 0 42 0 0 28 0 0 49 0 0 35 0 0 28 0 0 0 0 0 7 0 0 14 0 0 0 0 0 0 0 0 0 0 0 35 0 0 14 0 0 42 0 0 21 0 0 28 0 0 21 0 0 0 0 0 7 0 0 7 0 0 14 0 0 35 0 0 28 0 0 78 0 0 99 0 0 113 0 0 113 0 0 106 0 0 49 0 0 56 0 0 64 0 0 21 0 0 56 0 0 35 0 0 42 0 0 14 0 0 42 0 0 21 0 0 35 0 0 42 0 0 64 0 0 49 0 0 177 0 0 135 0 0 71 0 0 71 0 0 14 0 0 7 0 0 0 0 0 7 0 0 0 0 0 0 0 0 0 0 0 28 0 0 14 0 0 35 0 0 28 0 
0 71 0 0 78 0 0 85 0 0 71 0 0 92 0 0 28 0 0 49 0 0 42 0 0 21 0 0 35 0 0 28 0 0 14 0 0 7 0 0 7 0 0 7 0 0 7 0 0 14 0 0 14 0 0 49 0 0 28 0 0 21 0 0 7 0 0 0 0 0 0 0 0 14 0 0 28 0 0 64 0 0 7 0 0 35 0 0 49 0 0 128 0 0 106 0 0 92 0 0 120 0 0 78 0 0 28 0 0 49 0 0 92 0 0 42 0 0 42 0 0 42 0 0 42 0 0 28 0 0 28 0 0 49 0 0 78 0 0 49 0 0 99 0 0 92 0 0 35 0 0 35 0 0 21 0 0 7 0 0 7 0 0 0 0 0 7 0 0 0 0 0 7 0 0 14 0 0 14 0 0 28 0 0 21 0 0 56 0 0 106 0 
0 71 0 0 49 0 0 99 0 0 64 0 0 56 0 0 64 0 0 35 0 0 49 0 0 35 0 0 71 0 0 35 0 0 7 0 0 14 0 0 7 0 0 0 0 0 7 0 0 14 0 0 28 0 0 28 0 0 42 0 0 14 0 0 14 0 0 14 0 0 7 0 0 28 0 0 42 0 0 21 0 0 64 0 0 64 0 0 106 0 0 142 0 0 64 0 0 64 0 0 56 0 0 92 0 0 56 0 0 42 0 0 42 0 0 71 0 0 14 0 0 28 0 0 14 0 0 42 0 0 99 0 0 92 0 0 149 0 0 135 0 0 64 0 0 35 0 0 14 0 0 0 0 0 7 0 0 0 0 0 0 0 0 0 0 0 7 0 0 14 0 0 14 0 0 21 0 0 28 0 0 42 0 0 135 0 0 177 0 0 149 0 
0 71 0 0 106 0 0 120 0 0 64 0 0 49 0 0 56 0 0 42 0 0 14 0 0 64 0 0 28 0 0 14 0 0 14 0 0 7 0 0 7 0 0 7 0 0 0 0 0 49 0 0 21 0 0 42 0 0 14 0 0 0 0 0 35 0 0 7 0 0 7 0 0 64 0 0 21 0 0 21 0 0 35 0 0 120 0 0 106 0 0 106 0 0 71 0 0 71 0 0 56 0 0 64 0 0 42 0 0 42 0 0 64 0 0 35 0 0 14 0 0 64 0 0 35 0 0 128 0 0 156 0 0 113 0 0 106 0 0 71 0 0 7 0 0 7 0 0 7 0 0 0 0 0 0 0 0 0 0 0 0 0 0 21 0 0 14 0 0 28 0 0 56 0 0 71 0 0 156 0 0 177 0 0 135 0 0 113 0 0 106 0 
0 71 0 0 99 0 0 99 0 0 71 0 0 56 0 0 64 0 0 42 0 0 21 0 0 35 0 0 35 0 0 7 0 0 14 0 0 0 0 0 14 0 0 0 0 0 7 0 0 49 0 0 21 0 0 28 0 0 0 0 0 14 0 0 21 0 0 14 0 0 14 0 0 7 0 0 64 0 0 35 0 0 106 0 0 113 0 0 49 0 0 71 0 0 7 0 0 49 0 0 64 0 0 35 0 0 42 0 0 56 0 0 28 0 0 21 0 0 56 0 0 78 0 0 170 0 0 128 0 0 106 0 0 28 0 0 28 0 0 7 0 0 0 0 0 0 0 0 0 0 0 0 0 0 7 0 0 21 0 0 56 0 0 42 0 0 42 0 0 106 0 0 192 0 0 184 0 0 128 0 0 99 0 0 92 0 0 56 0 0 49 0 
0 71 0 0 85 0 0 106 0 0 64 0 0 49 0 0 49 0 0 42 0 0 49 0 0 49 0 0 7 0 0 14 0 0 14 0 0 7 0 0 7 0 0 14 0 0 14 0 0 49 0 0 42 0 0 7 0 0 21 0 0 0 0 0 0 0 0 14 0 0 35 0 0 35 0 0 64 0 0 120 0 0 113 0 0 120 0 0 71 0 0 28 0 0 42 0 0 28 0 0 35 0 0 49 0 0 28 0 0 28 0 0 49 0 0 78 0 0 128 0 0 113 0 0 106 0 0 35 0 0 42 0 0 14 0 0 21 0 0 7 0 0 0 0 0 0 0 0 0 0 0 14 0 0 14 0 0 28 0 0 78 0 0 106 0 0 149 0 0 163 0 0 170 0 0 170 0 0 92 0 0 49 0 0 35 0 0 14 0 0 28 0 
0 71 0 0 113 0 0 106 0 0 49 0 0 42 0 0 85 0 0 21 0 0 56 0 0 35 0 0 21 0 0 21 0 0 0 0 0 7 0 0 14 0 0 35 0 0 28 0 0 35 0 0 14 0 0 7 0 0 14 0 0 7 0 0 21 0 0 35 0 0 28 0 0 49 0 0 106 0 0 106 0 0 49 0 0 71 0 0 28 0 0 28 0 0 64 0 0 42 0 0 49 0 0 42 0 0 42 0 0 35 0 0 92 0 0 106 0 0 106 0 0 64 0 0 42 0 0 42 0 0 0 0 0 0 0 0 0 0 0 0 0 0 7 0 0 14 0 0 7 0 0 21 0 0 71 0 0 71 0 0 170 0 0 184 0 0 184 0 0 170 0 0 49 0 0 42 0 0 21 0 0 42 0 0 21 0 0 28 0 0 35 0 
0 71 0 0 99 0 0 64 0 0 85 0 0 28 0 0 35 0 0 49 0 0 28 0 0 28 0 0 7 0 0 14 0 0 14 0 0 7 0 0 0 0 0 14 0 0 28 0 0 21 0 0 7 0 0 14 0 0 7 0 0 28 0 0 21 0 0 7 0 0 78 0 0 128 0 0 142 0 0 106 0 0 71 0 0 28 0 0 28 0 0 42 0 0 21 0 0 42 0 0 35 0 0 64 0 0 42 0 0 78 0 0 85 0 0 78 0 0 106 0 0 35 0 0 7 0 0 21 0 0 7 0 0 7 0 0 0 0 0 28 0 0 0 0 0 28 0 0 113 0 0 42 0 0 128 0 0 177 0 0 135 0 0 99 0 0 92 0 0 49 0 0 49 0 0 42 0 0 28 0 0 0 0 0 21 0 0 14 0 0 28 0 
0 71 0 0 106 0 0 56 0 0 35 0 0 64 0 0 35 0 0 35 0 0 56 0 0 71 0 0 7 0 0 7 0 0 0 0 0 0 0 0 7 0 0 35 0 0 42 0 0 14 0 0 7 0 0 14 0 0 35 0 0 21 0 0 42 0 0 64 0 0 99 0 0 106 0 0 64 0 0 71 0 0 7 0 0 42 0 0 64 0 0 21 0 0 14 0 0 28 0 0 28 0 0 42 0 0 78 0 0 135 0 0 192 0 0 92 0 0 28 0 0 0 0 0 0 0 0 0 0 0 0 0 0 7 0 0 21 0 0 35 0 0 28 0 0 56 0 0 106 0 0 177 0 0 106 0 0 113 0 0 85 0 0 56 0 0 42 0 0 14 0 0 35 0 0 28 0 0 0 0 0 14 0 0 35 0 0 21 0 0 28 0 
0 71 0 0 64 0 0 56 0 0 92 0 0 49 0 0 56 0 0 21 0 0 49 0 0 21 0 0 7 0 0 14 0 0 21 0 0 14 0 0 49 0 0 49 0 0 21 0 0 0 0 0 7 0 0 14 0 0 0 0 0 42 0 0 35 0 0 99 0 0 113 0 0 92 0 0 64 0 0 71 0 0 49 0 0 28 0 0 42 0 0 42 0 0 28 0 0 7 0 0 49 0 0 135 0 0 113 0 0 92 0 0 56 0 0 42 0 0 7 0 0 0 0 0 0 0 0 0 0 0 7 0 0 49 0 0 28 0 0 28 0 0 113 0 0 106 0 0 163 0 0 163 0 0 149 0 0 49 0 0 28 0 0 21 0 0 21 0 0 28 0 0 28 0 0 35 0 0 7 0 0 7 0 0 21 0 0 85 0 0 71 0 
0 71 0 0 56 0 0 99 0 0 56 0 0 56 0 0 49 0 0 35 0 0 71 0 0 14 0 0 14 0 0 14 0 0 0 0 0 7 0 0 14 0 0 28 0 0 7 0 0 0 0 0 14 0 0 14 0 0 35 0 0 7 0 0 106 0 0 113 0 0 113 0 0 120 0 0 56 0 0 56 0 0 64 0 0 35 0 0 49 0 0 35 0 0 28 0 0 49 0 0 49 0 0 156 0 0 170 0 0 28 0 0 7 0 0 0 0 0 14 0 0 7 0 0 14 0 0 7 0 0 21 0 0 49 0 0 42 0 0 156 0 0 163 0 0 128 0 0 99 0 0 92 0 0 85 0 0 42 0 0 28 0 0 7 0 0 28 0 0 14 0 0 7 0 0 42 0 0 35 0 0 56 0 0 71 0 0 120 0 0 78 0 
0 71 0 0 78 0 0 99 0 0 64 0 0 35 0 0 35 0 0 21 0 0 21 0 0 14 0 0 0 0 0 0 0 0 7 0 0 14 0 0 21 0 0 42 0 0 7 0 0 7 0 0 42 0 0 21 0 0 28 0 0 35 0 0 92 0 0 142 0 0 106 0 0 78 0 0 92 0 0 64 0 0 35 0 0 49 0 0 42 0 0 64 0 0 42 0 0 135 0 0 156 0 0 99 0 0 42 0 0 21 0 0 7 0 0 0 0 0 0 0 0 7 0 0 7 0 0 14 0 0 42 0 0 56 0 0 128 0 0 220 0 0 149 0 0 149 0 0 56 0 0 14 0 0 35 0 0 28 0 0 21 0 0 35 0 0 42 0 0 21 0 0 35 0 0 42 0 0 78 0 0 149 0 0 163 0 0 163 0 0 156 0 
0 71 0 0 92 0 0 78 0 0 35 0 0 49 0 0 49 0 0 28 0 0 42 0 0 14 0 0 0 0 0 0 0 0 7 0 0 14 0 0 35 0 0 35 0 0 14 0 0 0 0 0 21 0 0 21 0 0 49 0 0 64 0 0 128 0 0 113 0 0 49 0 0 28 0 0 56 0 0 42 0 0 42 0 0 28 0 0 42 0 0 42 0 0 78 0 0 113 0 0 170 0 0 42 0 0 14 0 0 21 0 0 0 0 0 0 0 0 7 0 0 14 0 0 35 0 0 113 0 0 99 0 0 149 0 0 149 0 0 64 0 0 120 0 0 49 0 0 21 0 0 21 0 0 28 0 0 28 0 0 35 0 0 28 0 0 28 0 0 42 0 0 78 0 0 120 0 0 213 0 0 199 0 0 163 0 0 85 0 0 35 0 
0 71 0 0 99 0 0 71 0 0 56 0 0 49 0 0 49 0 0 35 0 0 7 0 0 7 0 0 0 0 0 7 0 0 7 0 0 49 0 0 42 0 0 7 0 0 14 0 0 14 0 0 21 0 0 7 0 0 71 0 0 128 0 0 113 0 0 120 0 0 56 0 0 49 0 0 42 0 0 42 0 0 56 0 0 28 0 0 35 0 0 78 0 0 135 0 0 92 0 0 28 0 0 21 0 0 21 0 0 0 0 0 7 0 0 7 0 0 21 0 0 28 0 0 64 0 0 106 0 0 199 0 0 128 0 0 99 0 0 64 0 0 35 0 0 21 0 0 28 0 0 0 0 0 35 0 0 21 0 0 35 0 0 21 0 0 56 0 0 71 0 0 99 0 0 120 0 0 142 0 0 99 0 0 42 0 0 35 0 0 21 0 
0 71 0 0 71 0 0 106 0 0 56 0 0 56 0 0 42 0 0 49 0 0 7 0 0 7 0 0 0 0 0 0 0 0 7 0 0 35 0 0 42 0 0 21 0 0 0 0 0 0 0 0 14 0 0 28 0 0 85 0 0 106 0 0 99 0 0 92 0 0 64 0 0 92 0 0 42 0 0 64 0 0 28 0 0 49 0 0 92 0 0 85 0 0 192 0 0 56 0 0 7 0 0 7 0 0 0 0 0 7 0 0 7 0 0 7 0 0 21 0 0 42 0 0 99 0 0 177 0 0 170 0 0 113 0 0 71 0 0 64 0 0 21 0 0 49 0 0 28 0 0 21 0 0 21 0 0 21 0 0 42 0 0 128 0 0 85 0 0 92 0 0 142 0 0 170 0 0 78 0 0 35 0 0 21 0 0 7 0 0 0 0 
0 71 0 0 49 0 0 78 0 0 56 0 0 28 0 0 35 0 0 28 0 0 14 0 0 7 0 0 14 0 0 0 0 0 14 0 0 28 0 0 14 0 0 21 0 0 7 0 0 0 0 0 28 0 0 71 0 0 113 0 0 120 0 0 64 0 0 92 0 0 21 0 0 42 0 0 71 0 0 35 0 0 21 0 0 78 0 0 106 0 0 78 0 0 92 0 0 42 0 0 0 0 0 0 0 0 0 0 0 7 0 0 7 0 0 35 0 0 56 0 0 78 0 0 142 0 0 170 0 0 42 0 0 71 0 0 49 0 0 56 0 0 28 0 0 28 0 0 7 0 0 49 0 0 35 0 0 14 0 0 142 0 0 99 0 0 99 0 0 156 0 0 92 0 0 35 0 0 7 0 0 14 0 0 0 0 0 0 0 0 14 0 
0 71 0 0 78 0 0 64 0 0 49 0 0 42 0 0 35 0 0 28 0 0 7 0 0 7 0 0 14 0 0 0 0 0 14 0 0 42 0 0 7 0 0 35 0 0 35 0 0 64 0 0 21 0 0 35 0 0 128 0 0 106 0 0 120 0 0 56 0 0 56 0 0 42 0 0 14 0 0 14 0 0 56 0 0 128 0 0 106 0 0 106 0 0 28 0 0 7 0 0 14 0 0 0 0 0 7 0 0 21 0 0 21 0 0 56 0 0 149 0 0 177 0 0 156 0 0 106 0 0 49 0 0 42 0 0 64 0 0 21 0 0 28 0 0 21 0 0 35 0 0 35 0 0 49 0 0 128 0 0 128 0 0 192 0 0 142 0 0 92 0 0 7 0 0 14 0 0 0 0 0 7 0 0 0 0 0 0 0 0 21 0 
0 71 0 0 142 0 0 78 0 0 28 0 0 56 0 0 35 0 0 28 0 0 14 0 0 14 0 0 7 0 0 14 0 0 35 0 0 21 0 0 0 0 0 0 0 0 28 0 0 42 0 0 35 0 0 128 0 0 120 0 0 64 0 0 28 0 0 64 0 0 35 0 0 42 0 0 28 0 0 64 0 0 78 0 0 113 0 0 64 0 0 35 0 0 0 0 0 0 0 0 7 0 0 7 0 0 14 0 0 28 0 0 42 0 0 78 0 0 177 0 0 163 0 0 85 0 0 49 0 0 42 0 0 21 0 0 0 0 0 35 0 0 14 0 0 7 0 0 42 0 0 85 0 0 149 0 0 206 0 0 170 0 0 99 0 0 28 0 0 28 0 0 14 0 0 0 0 0 0 0 0 7 0 0 14 0 0 14 0 0 42 0 
0 71 0 0 99 0 0 106 0 0 49 0 0 49 0 0 42 0 0 35 0 0 28 0 0 0 0 0 7 0 0 14 0 0 28 0 0 21 0 0 14 0 0 14 0 0 35 0 0 21 0 0 56 0 0 92 0 0 78 0 0 35 0 0 28 0 0 64 0 0 42 0 0 42 0 0 14 0 0 35 0 0 170 0 0 106 0 0 42 0 0 7 0 0 0 0 0 0 0 0 14 0 0 7 0 0 35 0 0 64 0 0 99 0 0 142 0 0 156 0 0 85 0 0 56 0 0 28 0 0 49 0 0 14 0 0 49 0 0 21 0 0 21 0 0 71 0 0 99 0 0 113 0 0 128 0 0 163 0 0 92 0 0 49 0 0 14 0 0 14 0 0 7 0 0 7 0 0 21 0 0 14 0 0 21 0 0 28 0 0 85 0 
0 71 0 0 99 0 0 64 0 0 71 0 0 42 0 0 28 0 0 7 0 0 7 0 0 7 0 0 0 0 0 14 0 0 28 0 0 7 0 0 35 0 0 0 0 0 21 0 0 35 0 0 92 0 0 113 0 0 64 0 0 28 0 0 71 0 0 35 0 0 14 0 0 28 0 0 42 0 0 128 0 0 128 0 0 35 0 0 42 0 0 21 0 0 0 0 0 0 0 0 7 0 0 14 0 0 113 0 0 106 0 0 177 0 0 170 0 0 106 0 0 49 0 0 28 0 0 28 0 0 21 0 0 14 0 0 28 0 0 56 0 0 78 0 0 71 0 0 156 0 0 199 0 0 156 0 0 92 0 0 49 0 0 21 0 0 0 0 0 0 0 0 14 0 0 14 0 0 14 0 0 42 0 0 49 0 0 99 0 0 156 0 
0 71 0 0 49 0 0 113 0 0 71 0 0 42 0 0 42 0 0 14 0 0 14 0 0 14 0 0 0 0 0 14 0 0 42 0 0 7 0 0 14 0 0 14 0 0 21 0 0 113 0 0 120 0 0 128 0 0 35 0 0 49 0 0 7 0 0 64 0 0 42 0 0 28 0 0 99 0 0 156 0 0 106 0 0 42 0 0 0 0 0 7 0 0 0 0 0 7 0 0 21 0 0 42 0 0 99 0 0 199 0 0 170 0 0 42 0 0 49 0 0 42 0 0 49 0 0 21 0 0 42 0 0 14 0 0 21 0 0 28 0 0 163 0 0 106 0 0 227 0 0 106 0 0 71 0 0 35 0 0 7 0 0 0 0 0 0 0 0 7 0 0 28 0 0 49 0 0 28 0 0 71 0 0 149 0 0 149 0 0 184 0 
0 71 0 0 64 0 0 78 0 0 56 0 0 56 0 0 28 0 0 14 0 0 14 0 0 21 0 0 7 0 0 35 0 0 14 0 0 0 0 0 7 0 0 14 0 0 7 0 0 99 0 0 142 0 0 120 0 0 92 0 0 64 0 0 35 0 0 35 0 0 21 0 0 49 0 0 92 0 0 113 0 0 28 0 0 14 0 0 0 0 0 7 0 0 7 0 0 49 0 0 49 0 0 56 0 0 149 0 0 128 0 0 113 0 0 71 0 0 42 0 0 21 0 0 14 0 0 14 0 0 14 0 0 7 0 0 56 0 0 149 0 0 177 0 0 113 0 0 106 0 0 28 0 0 0 0 0 14 0 0 7 0 0 14 0 0 7 0 0 7 0 0 14 0 0 28 0 0 128 0 0 170 0 0 135 0 0 128 0 0 113 0 
0 71 0 0 113 0 0 85 0 0 64 0 0 49 0 0 71 0 0 7 0 0 0 0 0 7 0 0 7 0 0 28 0 0 7 0 0 14 0 0 35 0 0 21 0 0 64 0 0 128 0 0 78 0 0 71 0 0 64 0 0 42 0 0 42 0 0 35 0 0 35 0 0 78 0 0 149 0 0 106 0 0 28 0 0 21 0 0 0 0 0 0 0 0 21 0 0 28 0 0 42 0 0 128 0 0 149 0 0 99 0 0 71 0 0 49 0 0 64 0 0 0 0 0 49 0 0 28 0 0 21 0 0 56 0 0 92 0 0 106 0 0 128 0 0 99 0 0 35 0 0 14 0 0 0 0 0 7 0 0 14 0 0 0 0 0 28 0 0 42 0 0 49 0 0 149 0 0 149 0 0 163 0 0 142 0 0 142 0 0 85 0 
0 71 0 0 85 0 0 14 0 0 35 0 0 28 0 0 35 0 0 0 0 0 14 0 0 0 0 0 35 0 0 42 0 0 28 0 0 0 0 0 7 0 0 35 0 0 78 0 0 113 0 0 106 0 0 56 0 0 21 0 0 35 0 0 14 0 0 21 0 0 42 0 0 49 0 0 135 0 0 71 0 0 7 0 0 7 0 0 0 0 0 28 0 0 35 0 0 28 0 0 156 0 0 220 0 0 64 0 0 64 0 0 64 0 0 56 0 0 21 0 0 35 0 0 21 0 0 56 0 0 28 0 0 149 0 0 106 0 0 142 0 0 142 0 0 49 0 0 7 0 0 14 0 0 7 0 0 21 0 0 21 0 0 35 0 0 14 0 0 78 0 0 142 0 0 184 0 0 99 0 0 99 0 0 78 0 0 78 0 0 0 0 
0 71 0 0 85 0 0 64 0 0 35 0 0 35 0 0 56 0 0 14 0 0 0 0 0 0 0 0 0 0 0 49 0 0 14 0 0 7 0 0 7 0 0 28 0 0 85 0 0 78 0 0 71 0 0 78 0 0 28 0 0 35 0 0 28 0 0 35 0 0 64 0 0 99 0 0 64 0 0 7 0 0 0 0 0 0 0 0 7 0 0 0 0 0 28 0 0 113 0 0 163 0 0 149 0 0 120 0 0 35 0 0 21 0 0 28 0 0 28 0 0 14 0 0 21 0 0 78 0 0 163 0 0 177 0 0 128 0 0 142 0 0 42 0 0 35 0 0 7 0 0 0 0 0 7 0 0 14 0 0 7 0 0 42 0 0 92 0 0 135 0 0 120 0 0 149 0 0 120 0 0 56 0 0 42 0 0 14 0 0 7 0 
0 71 0 0 85 0 0 92 0 0 49 0 0 21 0 0 28 0 0 7 0 0 7 0 0 14 0 0 49 0 0 21 0 0 0 0 0 14 0 0 64 0 0 35 0 0 128 0 0 92 0 0 78 0 0 49 0 0 42 0 0 42 0 0 28 0 0 49 0 0 49 0 0 92 0 0 35 0 0 7 0 0 0 0 0 0 0 0 14 0 0 28 0 0 56 0 0 106 0 0 128 0 0 149 0 0 49 0 0 21 0 0 49 0 0 28 0 0 21 0 0 7 0 0 71 0 0 71 0 0 106 0 0 113 0 0 99 0 0 49 0 0 35 0 0 7 0 0 0 0 0 7 0 0 7 0 0 21 0 0 49 0 0 92 0 0 170 0 0 163 0 0 177 0 0 71 0 0 49 0 0 42 0 0 7 0 0 7 0 0 7 0 
0 71 0 0 49 0 0 49 0 0 56 0 0 49 0 0 42 0 0 7 0 0 0 0 0 14 0 0 28 0 0 35 0 0 28 0 0 0 0 0 42 0 0 78 0 0 128 0 0 120 0 0 64 0 0 71 0 0 56 0 0 28 0 0 42 0 0 78 0 0 177 0 0 35 0 0 14 0 0 7 0 0 0 0 0 0 0 0 7 0 0 113 0 0 106 0 0 163 0 0 99 0 0 56 0 0 21 0 0 28 0 0 28 0 0 7 0 0 35 0 0 42 0 0 99 0 0 156 0 0 227 0 0 106 0 0 35 0 0 7 0 0 7 0 0 0 0 0 0 0 0 14 0 0 35 0 0 49 0 0 71 0 0 156 0 0 177 0 0 128 0 0 85 0 0 42 0 0 28 0 0 0 0 0 7 0 0 0 0 0 7 0 
0 71 0 0 99 0 0 56 0 0 35 0 0 35 0 0 35 0 0 14 0 0 0 0 0 14 0 0 28 0 0 14 0 0 14 0 0 28 0 0 21 0 0 64 0 0 142 0 0 64 0 0 92 0 0 42 0 0 71 0 0 28 0 0 42 0 0 92 0 0 135 0 0 35 0 0 0 0 0 0 0 0 0 0 0 14 0 0 21 0 0 42 0 0 177 0 0 163 0 0 92 0 0 14 0 0 21 0 0 0 0 0 21 0 0 49 0 0 35 0 0 85 0 0 113 0 0 199 0 0 106 0 0 28 0 0 14 0 0 14 0 0 0 0 0 7 0 0 14 0 0 64 0 0 56 0 0 120 0 0 163 0 0 163 0 0 120 0 0 49 0 0 64 0 0 7 0 0 7 0 0 0 0 0 0 0 0 14 0 0 14 0 
0 71 0 0 99 0 0 64 0 0 42 0 0 21 0 0 21 0 0 0 0 0 7 0 0 14 0 0 21 0 0 7 0 0 14 0 0 21 0 0 21 0 0 92 0 0 78 0 0 78 0 0 49 0 0 35 0 0 56 0 0 64 0 0 113 0 0 156 0 0 71 0 0 21 0 0 7 0 0 0 0 0 7 0 0 14 0 0 71 0 0 128 0 0 106 0 0 149 0 0 85 0 0 35 0 0 28 0 0 35 0 0 21 0 0 35 0 0 49 0 0 149 0 0 128 0 0 156 0 0 71 0 0 0 0 0 0 0 0 7 0 0 7 0 0 7 0 0 35 0 0 56 0 0 128 0 0 184 0 0 106 0 0 106 0 0 64 0 0 56 0 0 14 0 0 0 0 0 7 0 0 0 0 0 7 0 0 42 0 0 49 0 
0 71 0 0 120 0 0 49 0 0 42 0 0 64 0 0 14 0 0 7 0 0 7 0 0 49 0 0 42 0 0 0 0 0 7 0 0 64 0 0 21 0 0 120 0 0 106 0 0 71 0 0 64 0 0 42 0 0 35 0 0 64 0 0 128 0 0 113 0 0 71 0 0 7 0 0 0 0 0 0 0 0 21 0 0 28 0 0 71 0 0 177 0 0 113 0 0 49 0 0 42 0 0 28 0 0 28 0 0 21 0 0 21 0 0 14 0 0 128 0 0 206 0 0 163 0 0 92 0 0 35 0 0 14 0 0 7 0 0 21 0 0 14 0 0 21 0 0 49 0 0 120 0 0 184 0 0 241 0 0 135 0 0 99 0 0 42 0 0 7 0 0 0 0 0 0 0 0 0 0 0 7 0 0 14 0 0 78 0 0 78 0 
0 71 0 0 92 0 0 42 0 0 21 0 0 28 0 0 14 0 0 7 0 0 0 0 0 14 0 0 28 0 0 7 0 0 28 0 0 49 0 0 92 0 0 128 0 0 78 0 0 49 0 0 64 0 0 49 0 0 49 0 0 85 0 0 163 0 0 99 0 0 14 0 0 7 0 0 0 0 0 0 0 0 56 0 0 78 0 0 170 0 0 135 0 0 85 0 0 28 0 0 28 0 0 21 0 0 35 0 0 35 0 0 42 0 0 142 0 0 128 0 0 170 0 0 92 0 0 49 0 0 7 0 0 7 0 0 14 0 0 21 0 0 7 0 0 49 0 0 71 0 0 163 0 0 106 0 0 135 0 0 99 0 0 14 0 0 0 0 0 0 0 0 0 0 0 0 0 0 35 0 0 28 0 0 71 0 0 71 0 0 56 0 
0 71 0 0 99 0 0 56 0 0 42 0 0 35 0 0 7 0 0 0 0 0 0 0 0 49 0 0 28 0 0 14 0 0 14 0 0 7 0 0 35 0 0 113 0 0 71 0 0 49 0 0 35 0 0 56 0 0 21 0 0 78 0 0 128 0 0 28 0 0 7 0 0 0 0 0 0 0 0 21 0 0 42 0 0 106 0 0 184 0 0 99 0 0 56 0 0 21 0 0 7 0 0 35 0 0 28 0 0 21 0 0 128 0 0 99 0 0 192 0 0 99 0 0 49 0 0 21 0 0 0 0 0 14 0 0 0 0 0 35 0 0 42 0 0 92 0 0 156 0 0 163 0 0 106 0 0 99 0 0 14 0 0 14 0 0 7 0 0 7 0 0 7 0 0 35 0 0 7 0 0 35 0 0 149 0 0 92 0 0 135 0 
0 71 0 0 56 0 0 156 0 0 49 0 0 28 0 0 7 0 0 14 0 0 7 0 0 35 0 0 7 0 0 14 0 0 35 0 0 7 0 0 78 0 0 113 0 0 56 0 0 64 0 0 71 0 0 35 0 0 42 0 0 92 0 0 170 0 0 35 0 0 0 0 0 7 0 0 7 0 0 14 0 0 42 0 0 149 0 0 184 0 0 92 0 0 42 0 0 21 0 0 28 0 0 42 0 0 28 0 0 56 0 0 85 0 0 99 0 0 142 0 0 28 0 0 14 0 0 0 0 0 0 0 0 7 0 0 28 0 0 14 0 0 92 0 0 170 0 0 177 0 0 120 0 0 64 0 0 42 0 0 0 0 0 7 0 0 0 0 0 0 0 0 21 0 0 28 0 0 49 0 0 92 0 0 71 0 0 71 0 0 92 0 
0 71 0 0 106 0 0 49 0 0 42 0 0 49 0 0 14 0 0 7 0 0 14 0 0 49 0 0 7 0 0 0 0 0 14 0 0 35 0 0 120 0 0 120 0 0 28 0 0 28 0 0 49 0 0 28 0 0 78 0 0 113 0 0 35 0 0 14 0 0 7 0 0 0 0 0 14 0 0 28 0 0 106 0 0 163 0 0 170 0 0 49 0 0 14 0 0 28 0 0 14 0 0 21 0 0 42 0 0 71 0 0 92 0 0 156 0 0 92 0 0 28 0 0 14 0 0 0 0 0 7 0 0 7 0 0 42 0 0 78 0 0 135 0 0 163 0 0 128 0 0 49 0 0 56 0 0 7 0 0 0 0 0 7 0 0 0 0 0 14 0 0 56 0 0 99 0 0 64 0 0 142 0 0 135 0 0 42 0 0 28 0 
0 71 0 0 106 0 0 56 0 0 21 0 0 28 0 0 0 0 0 14 0 0 0 0 0 28 0 0 0 0 0 7 0 0 35 0 0 71 0 0 128 0 0 64 0 0 64 0 0 42 0 0 56 0 0 21 0 0 64 0 0 78 0 0 56 0 0 0 0 0 0 0 0 7 0 0 14 0 0 56 0 0 192 0 0 170 0 0 49 0 0 49 0 0 35 0 0 28 0 0 7 0 0 35 0 0 78 0 0 99 0 0 142 0 0 92 0 0 7 0 0 14 0 0 7 0 0 14 0 0 28 0 0 14 0 0 49 0 0 142 0 0 120 0 0 177 0 0 85 0 0 64 0 0 14 0 0 0 0 0 0 0 0 7 0 0 21 0 0 56 0 0 78 0 0 113 0 0 106 0 0 120 0 0 64 0 0 28 0 0 35 0 
0 71 0 0 106 0 0 42 0 0 21 0 0 35 0 0 21 0 0 7 0 0 35 0 0 35 0 0 7 0 0 7 0 0 35 0 0 49 0 0 106 0 0 71 0 0 28 0 0 42 0 0 42 0 0 35 0 0 106 0 0 64 0 0 42 0 0 0 0 0 0 0 0 14 0 0 21 0 0 71 0 0 184 0 0 170 0 0 42 0 0 42 0 0 28 0 0 35 0 0 42 0 0 42 0 0 120 0 0 120 0 0 170 0 0 35 0 0 14 0 0 0 0 0 7 0 0 14 0 0 49 0 0 28 0 0 149 0 0 184 0 0 149 0 0 71 0 0 42 0 0 7 0 0 0 0 0 0 0 0 0 0 0 35 0 0 28 0 0 99 0 0 113 0 0 135 0 0 99 0 0 64 0 0 42 0 0 7 0 0 0 0 
0 71 0 0 85 0 0 64 0 0 35 0 0 35 0 0 7 0 0 0 0 0 0 0 0 49 0 0 21 0 0 7 0 0 14 0 0 99 0 0 113 0 0 35 0 0 42 0 0 49 0 0 28 0 0 56 0 0 163 0 0 49 0 0 7 0 0 7 0 0 0 0 0 14 0 0 28 0 0 156 0 0 128 0 0 92 0 0 21 0 0 28 0 0 0 0 0 7 0 0 35 0 0 78 0 0 213 0 0 142 0 0 78 0 0 7 0 0 0 0 0 0 0 0 21 0 0 14 0 0 28 0 0 128 0 0 149 0 0 99 0 0 120 0 0 49 0 0 28 0 0 7 0 0 7 0 0 0 0 0 35 0 0 7 0 0 49 0 0 64 0 0 106 0 0 99 0 0 56 0 0 14 0 0 14 0 0 28 0 0 7 0 
0 71 0 0 64 0 0 28 0 0 49 0 0 28 0 0 14 0 0 7 0 0 14 0 0 21 0 0 14 0 0 28 0 0 7 0 0 128 0 0 106 0 0 28 0 0 42 0 0 42 0 0 64 0 0 78 0 0 78 0 0 35 0 0 21 0 0 7 0 0 28 0 0 28 0 0 42 0 0 177 0 0 99 0 0 49 0 0 42 0 0 0 0 0 14 0 0 7 0 0 56 0 0 149 0 0 199 0 0 99 0 0 35 0 0 14 0 0 7 0 0 7 0 0 14 0 0 42 0 0 71 0 0 170 0 0 163 0 0 99 0 0 56 0 0 42 0 0 0 0 0 0 0 0 0 0 0 7 0 0 28 0 0 35 0 0 92 0 0 142 0 0 120 0 0 64 0 0 14 0 0 14 0 0 7 0 0 21 0 0 7 0 
0 71 0 0 71 0 0 78 0 0 42 0 0 49 0 0 14 0 0 0 0 0 28 0 0 28 0 0 7 0 0 28 0 0 21 0 0 149 0 0 85 0 0 42 0 0 28 0 0 49 0 0 42 0 0 120 0 0 92 0 0 42 0 0 0 0 0 0 0 0 14 0 0 21 0 0 135 0 0 135 0 0 92 0 0 35 0 0 21 0 0 21 0 0 35 0 0 21 0 0 71 0 0 163 0 0 163 0 0 42 0 0 21 0 0 0 0 0 0 0 0 14 0 0 21 0 0 49 0 0 149 0 0 135 0 0 142 0 0 78 0 0 42 0 0 7 0 0 7 0 0 0 0 0 7 0 0 14 0 0 71 0 0 149 0 0 71 0 0 135 0 0 64 0 0 42 0 0 14 0 0 7 0 0 0 0 0 21 0 0 7 0 
0 71 0 0 56 0 0 64 0 0 35 0 0 71 0 0 7 0 0 0 0 0 35 0 0 14 0 0 14 0 0 21 0 0 64 0 0 106 0 0 71 0 0 42 0 0 21 0 0 28 0 0 42 0 0 135 0 0 92 0 0 0 0 0 0 0 0 7 0 0 35 0 0 56 0 0 177 0 0 113 0 0 56 0 0 14 0 0 28 0 0 14 0 0 21 0 0 85 0 0 120 0 0 163 0 0 85 0 0 35 0 0 7 0 0 0 0 0 0 0 0 14 0 0 28 0 0 99 0 0 149 0 0 128 0 0 142 0 0 78 0 0 14 0 0 7 0 0 0 0 0 14 0 0 42 0 0 78 0 0 71 0 0 92 0 0 71 0 0 42 0 0 28 0 0 7 0 0 28 0 0 21 0 0 21 0 0 14 0 0 21 0 
0 71 0 0 49 0 0 71 0 0 21 0 0 7 0 0 0 0 0 0 0 0 28 0 0 7 0 0 21 0 0 21 0 0 106 0 0 113 0 0 120 0 0 71 0 0 42 0 0 28 0 0 113 0 0 128 0 0 56 0 0 21 0 0 0 0 0 7 0 0 28 0 0 106 0 0 149 0 0 106 0 0 49 0 0 28 0 0 35 0 0 28 0 0 28 0 0 71 0 0 78 0 0 156 0 0 35 0 0 21 0 0 0 0 0 14 0 0 21 0 0 42 0 0 85 0 0 156 0 0 184 0 0 113 0 0 85 0 0 0 0 0 7 0 0 7 0 0 7 0 0 14 0 0 49 0 0 78 0 0 56 0 0 135 0 0 92 0 0 28 0 0 35 0 0 0 0 0 7 0 0 7 0 0 7 0 0 21 0 0 71 0 
